<svg width="1920" height="564" viewBox="0 0 1920 564" fill="none" xmlns="http://www.w3.org/2000/svg">
<g clip-path="url(#clip0_2492_17132)">
<g clip-path="url(#clip1_2492_17132)">
<path d="M1903 529.79V564.001H1851.54L1861.56 511.467C1861.24 513.541 1867.66 517.429 1876.44 521.329C1879.6 522.728 1883.11 524.118 1886.87 525.435C1892.92 527.571 1898.5 529.023 1903 529.79C1903 529.79 1902.99 529.79 1903 529.79Z" fill="#9A3B82"/>
<path d="M1903 519.503V528.659C1898.5 527.892 1892.93 526.451 1886.86 524.314C1872.53 519.285 1861.51 513.073 1862.13 510.284C1862.14 510.242 1862.15 510.201 1862.16 510.17C1863.13 507.443 1875.81 509.33 1890.33 514.422C1895 516.06 1899.21 517.75 1902.74 519.378C1902.83 519.42 1902.91 519.461 1903 519.503Z" fill="#FFCF2D"/>
<path d="M1895.94 440.236C1890.92 440.236 1886.86 444.301 1886.86 449.31V474.177C1886.86 479.186 1882.79 483.251 1877.78 483.251H1841.4C1846.42 483.251 1850.48 479.186 1850.48 474.177V449.31C1850.48 444.291 1854.54 440.236 1859.55 440.236H1895.94Z" fill="white"/>
<path fill-rule="evenodd" clip-rule="evenodd" d="M1859.55 440.495C1854.68 440.495 1850.74 444.434 1850.74 449.309V474.176C1850.74 478.251 1848.13 481.719 1844.48 482.991H1877.78C1882.65 482.991 1886.6 479.042 1886.6 474.176V449.309C1886.6 445.234 1889.21 441.766 1892.86 440.495H1859.55ZM1895.94 439.977H1859.55C1854.4 439.977 1850.22 444.147 1850.22 449.309V474.176C1850.22 479.042 1846.28 482.991 1841.4 482.991V483.509H1877.78C1882.93 483.509 1887.11 479.328 1887.11 474.176V449.309C1887.11 444.444 1891.06 440.495 1895.94 440.495V439.977Z" fill="#FFCF2D"/>
<path d="M1880.03 453.105H1856.86V474.602H1880.03V453.105Z" fill="white"/>
<path fill-rule="evenodd" clip-rule="evenodd" d="M1856.61 452.846H1880.29V474.861H1856.61V452.846ZM1857.12 453.364V474.342H1879.77V453.364H1857.12Z" fill="#FFCF2D"/>
<path fill-rule="evenodd" clip-rule="evenodd" d="M1856.86 455.916H1880.02V456.435H1856.86V455.916Z" fill="#FFCF2D"/>
<path fill-rule="evenodd" clip-rule="evenodd" d="M1856.86 458.984H1880.02V459.503H1856.86V458.984Z" fill="#FFCF2D"/>
<path fill-rule="evenodd" clip-rule="evenodd" d="M1856.86 462.064H1880.02V462.583H1856.86V462.064Z" fill="#FFCF2D"/>
<path fill-rule="evenodd" clip-rule="evenodd" d="M1856.86 465.135H1880.02V465.653H1856.86V465.135Z" fill="#FFCF2D"/>
<path fill-rule="evenodd" clip-rule="evenodd" d="M1856.86 468.215H1880.02V468.733H1856.86V468.215Z" fill="#FFCF2D"/>
<path fill-rule="evenodd" clip-rule="evenodd" d="M1856.86 471.283H1880.02V471.802H1856.86V471.283Z" fill="#FFCF2D"/>
<path d="M1886.86 449.31C1886.86 444.322 1890.88 440.278 1895.85 440.236C1900.83 440.278 1904.84 444.322 1904.84 449.31H1886.86Z" fill="#66B0F0"/>
<path fill-rule="evenodd" clip-rule="evenodd" d="M1895.85 439.977L1895.85 439.977C1900.97 440.019 1905.1 444.179 1905.1 449.309V449.569H1886.6V449.309C1886.6 444.179 1890.74 440.019 1895.85 439.977L1895.85 439.977ZM1895.85 440.495C1891.11 440.536 1887.26 444.325 1887.12 449.05H1904.58C1904.44 444.325 1900.6 440.536 1895.85 440.495Z" fill="#FFCF2D"/>
<path d="M1877.82 483.479C1877.81 483.479 1877.79 483.479 1877.78 483.479H1841.54C1841.52 483.479 1841.5 483.479 1841.48 483.479C1837.75 483.427 1834.57 481.125 1833.22 477.869H1869.54C1870.9 481.125 1874.08 483.427 1877.82 483.479Z" fill="#FFCF2D"/>
<path d="M1858.38 450.635H1854.19V447.275H1856.16V449.142C1856.16 449.183 1856.18 449.215 1856.2 449.225L1856.21 449.235L1858.38 450.635Z" fill="#FE5244"/>
<path d="M1860.01 448.438V448.884C1860.01 448.967 1860 449.05 1860 449.133C1860 449.154 1859.99 449.185 1859.99 449.205C1859.98 449.247 1859.98 449.288 1859.97 449.33C1859.85 449.9 1859.51 450.367 1859.08 450.543C1859.05 450.554 1859.02 450.564 1858.99 450.574C1858.94 450.595 1858.88 450.605 1858.83 450.616C1858.8 450.616 1858.78 450.626 1858.76 450.626L1856.39 449.081C1856.41 448.718 1856.64 448.428 1856.91 448.428H1860.01V448.438Z" fill="#FE5244"/>
<path d="M1883.14 447.275V450.635H1878.95L1881.11 449.235L1881.12 449.225C1881.13 449.215 1881.13 449.215 1881.14 449.215C1881.14 449.204 1881.15 449.204 1881.15 449.194C1881.15 449.194 1881.15 449.183 1881.16 449.183C1881.16 449.173 1881.16 449.173 1881.17 449.173C1881.17 449.173 1881.17 449.173 1881.17 449.163C1881.17 449.152 1881.17 449.152 1881.17 449.142V447.275H1883.14Z" fill="#FE5244"/>
<path d="M1880.97 449.092L1878.59 450.638C1878.53 450.627 1878.47 450.617 1878.4 450.606C1878.38 450.596 1878.36 450.596 1878.34 450.586C1878.31 450.575 1878.29 450.565 1878.26 450.555C1878.24 450.544 1878.21 450.534 1878.19 450.523C1877.86 450.347 1877.6 450.005 1877.46 449.58C1877.44 449.518 1877.42 449.455 1877.41 449.393C1877.4 449.372 1877.4 449.341 1877.39 449.31C1877.37 449.175 1877.35 449.041 1877.35 448.895V448.449H1880.46C1880.72 448.439 1880.94 448.729 1880.97 449.092Z" fill="#FE5244"/>
<path d="M1880.97 445.576V448.501C1880.95 448.48 1880.93 448.449 1880.9 448.428C1880.86 448.387 1880.82 448.355 1880.78 448.324C1880.68 448.262 1880.56 448.221 1880.45 448.221H1856.9C1856.77 448.221 1856.66 448.262 1856.57 448.324C1856.52 448.355 1856.48 448.387 1856.44 448.428C1856.42 448.449 1856.4 448.469 1856.38 448.501V445.576C1856.38 445.182 1856.61 444.871 1856.9 444.871H1880.45C1880.73 444.871 1880.97 445.193 1880.97 445.576Z" fill="#FE5244"/>
<path d="M1903 488.011V528.66H1902.99C1898.49 527.893 1892.92 526.452 1886.85 524.315C1883.09 522.998 1879.58 521.599 1876.42 520.209L1878.11 510.772L1880.99 494.751C1871.97 491.93 1870.51 483.261 1870.51 483.261H1877.76C1882.78 483.261 1886.84 479.196 1886.84 474.188V471.201H1882.18C1878.91 471.201 1876.26 467.986 1876.26 464.72V463.662H1886.61C1888.53 463.662 1890.33 464.564 1891.48 466.099L1899.05 476.21C1901.62 479.611 1903 483.749 1903 488.011Z" fill="#A0505A"/>
<path d="M1903 519.503V528.66H1902.99C1898.49 527.892 1892.92 526.451 1886.85 524.315C1883.09 522.998 1879.58 521.598 1876.42 520.208L1878.11 510.771C1881.85 511.684 1886 512.918 1890.31 514.432C1894.98 516.07 1899.19 517.761 1902.71 519.389C1902.83 519.42 1902.91 519.461 1903 519.503Z" fill="#73325A"/>
<path d="M1887.31 471.201H1882.31C1879.05 471.201 1876.39 467.986 1876.39 464.72V463.662H1887.31V471.201Z" fill="#A0505A"/>
<path fill-rule="evenodd" clip-rule="evenodd" d="M1884.08 481.544C1884.08 481.544 1884.08 481.544 1884.17 481.301C1884.26 481.058 1884.26 481.059 1884.26 481.059L1884.26 481.059L1884.26 481.059L1884.27 481.061C1884.27 481.063 1884.28 481.065 1884.29 481.068C1884.3 481.074 1884.32 481.083 1884.35 481.095C1884.41 481.118 1884.49 481.153 1884.59 481.201C1884.8 481.296 1885.09 481.441 1885.44 481.645C1886.14 482.053 1887.08 482.694 1888.04 483.632C1889.96 485.509 1891.96 488.569 1892.29 493.291L1891.77 493.328C1891.45 488.748 1889.52 485.804 1887.68 484.003C1886.75 483.101 1885.85 482.484 1885.18 482.093C1884.84 481.898 1884.56 481.76 1884.37 481.671C1884.28 481.626 1884.2 481.594 1884.15 481.573C1884.13 481.563 1884.11 481.555 1884.1 481.55C1884.09 481.548 1884.09 481.546 1884.08 481.545L1884.08 481.544L1884.08 481.544ZM1884.08 481.544C1884.08 481.544 1884.08 481.544 1884.08 481.544L1884.08 481.544Z" fill="#73325A"/>
<path fill-rule="evenodd" clip-rule="evenodd" d="M1885.91 495.227H1881.01V494.709H1885.91V495.227Z" fill="#73325A"/>
<path fill-rule="evenodd" clip-rule="evenodd" d="M1889.83 381.63C1889.45 376.754 1883.98 374.084 1879.89 376.784L1876.61 378.962L1876.26 378.443L1879.55 376.265C1884.03 373.303 1890.03 376.233 1890.45 381.581L1891.17 390.634C1891.17 390.634 1891.17 390.634 1891.17 390.634C1891.55 395.372 1896.76 398.072 1900.84 395.649L1902.92 394.415L1903.23 394.95L1901.16 396.184L1901.16 396.184C1896.68 398.842 1890.96 395.88 1890.55 390.683L1889.83 381.63Z" fill="#FFCF2D"/>
<path d="M1828.66 345.072L1870.9 369.587L1892.17 417.34L1867.76 400.904L1841.25 369.836L1828.66 345.072Z" fill="#9A3B82"/>
<path fill-rule="evenodd" clip-rule="evenodd" d="M1871.66 368.685L1828.62 343.692L1828.93 343.154L1872.15 368.248L1893.91 417.099L1893.34 417.352L1871.66 368.685Z" fill="#FFCF2D"/>
<path d="M1867.32 401.958C1869.3 400.292 1864.86 391.793 1857.42 382.975C1849.97 374.157 1842.34 368.36 1840.36 370.026C1838.39 371.692 1842.82 380.191 1850.27 389.009C1857.71 397.827 1865.35 403.624 1867.32 401.958Z" fill="white"/>
<path d="M1866.12 402.467C1868.06 400.834 1863.71 392.5 1856.41 383.853C1849.11 375.206 1841.62 369.52 1839.69 371.153C1837.75 372.786 1842.1 381.119 1849.4 389.766C1856.7 398.414 1864.19 404.1 1866.12 402.467Z" fill="white"/>
<path fill-rule="evenodd" clip-rule="evenodd" d="M1841.31 377.711C1843.06 381.058 1845.96 385.287 1849.6 389.601C1853.24 393.914 1856.93 397.483 1859.93 399.767C1861.44 400.91 1862.76 401.722 1863.82 402.148C1864.35 402.361 1864.8 402.473 1865.16 402.487C1865.52 402.501 1865.78 402.42 1865.96 402.27C1866.13 402.12 1866.26 401.88 1866.3 401.521C1866.35 401.16 1866.32 400.699 1866.19 400.142C1865.95 399.029 1865.37 397.587 1864.5 395.912C1862.75 392.565 1859.85 388.335 1856.21 384.022C1852.57 379.708 1848.88 376.139 1845.88 373.856C1844.37 372.712 1843.05 371.9 1841.99 371.474C1841.46 371.261 1841.01 371.15 1840.65 371.135C1840.29 371.121 1840.03 371.202 1839.85 371.352C1839.67 371.502 1839.55 371.743 1839.5 372.101C1839.46 372.462 1839.49 372.923 1839.61 373.48C1839.86 374.594 1840.44 376.035 1841.31 377.711ZM1838.99 372.035C1839.05 371.592 1839.21 371.214 1839.52 370.956C1839.82 370.698 1840.22 370.6 1840.67 370.617C1841.11 370.635 1841.63 370.768 1842.18 370.993C1843.3 371.444 1844.67 372.288 1846.19 373.443C1849.24 375.756 1852.95 379.353 1856.6 383.687C1860.26 388.021 1863.19 392.282 1864.96 395.672C1865.84 397.365 1866.44 398.853 1866.7 400.032C1866.83 400.621 1866.88 401.146 1866.82 401.588C1866.76 402.031 1866.6 402.408 1866.29 402.666C1865.98 402.925 1865.59 403.023 1865.14 403.005C1864.69 402.987 1864.18 402.855 1863.62 402.629C1862.51 402.178 1861.14 401.335 1859.62 400.18C1856.57 397.867 1852.86 394.269 1849.2 389.935C1845.54 385.602 1842.62 381.341 1840.85 377.951C1839.97 376.258 1839.36 374.769 1839.11 373.591C1838.98 373.002 1838.93 372.476 1838.99 372.035Z" fill="#FFCF2D"/>
<path d="M1871.27 398.602L1867.25 401.993C1867.99 401.361 1867.83 399.764 1866.92 397.534C1865.44 393.863 1861.97 388.502 1857.34 383.006C1852.71 377.52 1848 373.196 1844.63 371.122C1842.59 369.857 1841.03 369.421 1840.28 370.054L1844.31 366.663C1846.28 364.994 1854.26 370.448 1861.71 379.273C1869.15 388.098 1873.25 396.943 1871.27 398.602Z" fill="#FFCF2D"/>
<path d="M1914.25 385.629C1915.4 385.079 1916.5 384.592 1917.57 384.188C1918.21 384.851 1918.76 385.629 1919.18 386.5C1919.61 387.371 1919.88 388.284 1920 389.186C1919.01 389.766 1917.95 390.347 1916.82 390.897C1911.14 393.645 1905.98 394.692 1905.27 393.24C1904.56 391.778 1908.58 388.377 1914.25 385.629Z" fill="#FFCF2D"/>
<path fill-rule="evenodd" clip-rule="evenodd" d="M1904.24 393.011C1903.72 393.011 1903.29 393.433 1903.29 393.955C1903.29 394.476 1903.72 394.898 1904.24 394.898C1904.76 394.898 1905.18 394.476 1905.18 393.955C1905.18 393.433 1904.76 393.011 1904.24 393.011ZM1902.67 393.955C1902.67 393.09 1903.37 392.389 1904.24 392.389C1905.1 392.389 1905.8 393.09 1905.8 393.955C1905.8 394.819 1905.1 395.52 1904.24 395.52C1903.37 395.52 1902.67 394.819 1902.67 393.955Z" fill="#9A3B82"/>
<path d="M1830.18 520.095V564.001H1780.17L1786.57 516.32C1786.57 518.249 1796.33 520.655 1808.37 521.692C1820.41 522.739 1830.18 522.024 1830.18 520.095Z" fill="#66B0F0"/>
<path d="M1829.95 518.965C1829.95 520.894 1820.28 521.609 1808.35 520.562C1796.43 519.515 1786.75 517.109 1786.75 515.19C1786.75 513.262 1796.43 512.546 1808.35 513.594C1820.29 514.631 1829.95 517.036 1829.95 518.965Z" fill="#3FB1B5"/>
<path fill-rule="evenodd" clip-rule="evenodd" d="M1839.74 423.846L1836.72 421.893L1837.06 421.371L1840.1 423.338L1840.11 423.346C1840.99 424.029 1841.3 425.259 1841.2 426.768C1841.1 428.291 1840.59 430.184 1839.74 432.315C1838.03 436.579 1834.92 441.862 1830.81 447.156C1826.7 452.456 1822.36 456.785 1818.65 459.499C1816.8 460.854 1815.1 461.818 1813.65 462.292C1812.21 462.762 1810.94 462.775 1810.06 462.093L1810.05 462.083L1808.54 460.662L1808.97 460.21L1810.45 461.609C1811.09 462.091 1812.09 462.147 1813.45 461.7C1814.82 461.255 1816.46 460.333 1818.29 458.997C1821.93 456.326 1826.24 452.042 1830.32 446.775L1830.32 446.775C1834.4 441.513 1837.48 436.281 1839.16 432.084C1840 429.983 1840.49 428.159 1840.58 426.729C1840.67 425.293 1840.36 424.338 1839.74 423.846Z" fill="#66B0F0"/>
<path d="M1794.84 470.827L1829.22 439.365L1841.24 402.77L1804.55 436.109L1794.84 470.827Z" fill="#66B0F0"/>
<path fill-rule="evenodd" clip-rule="evenodd" d="M1842.81 402.932C1842.97 402.985 1843.06 403.161 1843 403.324L1830.77 440.578L1793.3 474.874C1793.17 474.99 1792.97 474.981 1792.86 474.855C1792.74 474.728 1792.75 474.531 1792.88 474.415L1830.23 440.229L1842.41 403.13C1842.47 402.967 1842.64 402.878 1842.81 402.932Z" fill="#FE5244"/>
<path fill-rule="evenodd" clip-rule="evenodd" d="M1780.01 470.261L1812.66 439.037L1813.09 439.487L1780.44 470.71L1780.44 470.711C1778.64 472.435 1775.68 470.805 1776.19 468.349L1777.1 463.921L1777.1 463.921C1777.46 462.198 1775.5 460.939 1774.09 461.974L1774.08 461.975L1763.3 469.825L1762.93 469.322L1773.72 461.472C1773.72 461.472 1773.72 461.472 1773.72 461.472M1777.71 464.047C1778.18 461.767 1775.6 460.101 1773.72 461.472L1777.71 464.047ZM1777.71 464.047L1776.8 468.474L1776.8 468.475C1776.42 470.332 1778.65 471.564 1780.01 470.261L1780.01 470.261" fill="#FE5244"/>
<path d="M1754.33 480.751C1753.37 481.56 1752.4 482.307 1751.47 482.96C1750.69 482.473 1749.98 481.861 1749.34 481.114C1748.72 480.368 1748.24 479.559 1747.89 478.708C1748.7 477.9 1749.59 477.08 1750.56 476.261C1755.38 472.206 1760.13 469.915 1761.18 471.159C1762.21 472.403 1759.16 476.697 1754.33 480.751Z" fill="#FFCF2D"/>
<path fill-rule="evenodd" clip-rule="evenodd" d="M1762.11 469.386C1761.59 469.386 1761.17 469.808 1761.17 470.33C1761.17 470.851 1761.59 471.273 1762.11 471.273C1762.63 471.273 1763.06 470.851 1763.06 470.33C1763.06 469.808 1762.63 469.386 1762.11 469.386ZM1760.55 470.33C1760.55 469.465 1761.25 468.764 1762.11 468.764C1762.98 468.764 1763.68 469.465 1763.68 470.33C1763.68 471.194 1762.98 471.895 1762.11 471.895C1761.25 471.895 1760.55 471.194 1760.55 470.33Z" fill="#FE5244"/>
<path d="M1814.42 487.046V520.955C1812.5 520.872 1810.46 520.748 1808.35 520.561C1800.59 519.887 1793.78 518.622 1789.98 517.295L1790.55 513.541L1792.46 500.941H1789.99C1786.47 500.941 1783.63 498.1 1783.63 494.585V482.099C1783.63 479.631 1784.52 477.257 1786.15 475.4L1794.27 466.119C1794.8 465.518 1795.79 465.891 1795.79 466.69V479.31C1795.79 480.824 1795.26 482.286 1794.27 483.437L1793.54 484.287H1802.36C1803.63 484.287 1804.38 482.867 1803.67 481.809C1802.58 480.222 1801.15 477.962 1799.79 475.348C1797.08 470.174 1801.78 467.281 1801.78 467.281L1812.53 481.228C1813.76 482.918 1814.42 484.961 1814.42 487.046Z" fill="#FFCF2D"/>
<path fill-rule="evenodd" clip-rule="evenodd" d="M1795.79 465.756C1795.94 465.756 1796.05 465.872 1796.05 466.015V479.309C1796.05 480.885 1795.49 482.407 1794.47 483.605L1794.47 483.605M1794.47 483.605L1793.74 484.455C1793.65 484.564 1793.48 484.577 1793.38 484.484C1793.27 484.391 1793.25 484.227 1793.35 484.119L1794.07 483.268L1794.07 483.268C1795.02 482.164 1795.54 480.762 1795.54 479.309V466.015C1795.54 465.872 1795.65 465.756 1795.79 465.756" fill="white"/>
<path fill-rule="evenodd" clip-rule="evenodd" d="M1793.72 484.083C1793.82 484.178 1793.83 484.342 1793.74 484.449L1787.91 490.993C1787.81 491.1 1787.65 491.109 1787.54 491.014C1787.44 490.919 1787.43 490.755 1787.52 490.648L1793.35 484.104C1793.45 483.997 1793.61 483.988 1793.72 484.083Z" fill="white"/>
<path fill-rule="evenodd" clip-rule="evenodd" d="M1795.79 473.273C1795.94 473.273 1796.05 473.39 1796.05 473.533C1796.05 475.108 1795.49 476.63 1794.47 477.828C1794.47 477.828 1794.47 477.828 1794.47 477.828L1793.74 478.681L1787.92 485.216C1787.82 485.323 1787.66 485.332 1787.55 485.237C1787.45 485.142 1787.44 484.978 1787.53 484.871L1793.35 478.34L1794.07 477.491C1795.02 476.387 1795.53 474.985 1795.53 473.533C1795.53 473.39 1795.65 473.273 1795.79 473.273Z" fill="white"/>
<path fill-rule="evenodd" clip-rule="evenodd" d="M1795.79 467.508C1795.94 467.508 1796.05 467.624 1796.05 467.767C1796.05 469.343 1795.49 470.865 1794.47 472.063C1794.47 472.063 1794.47 472.063 1794.47 472.063L1793.74 472.915L1787.92 479.45C1787.82 479.557 1787.66 479.566 1787.55 479.471C1787.45 479.376 1787.44 479.212 1787.53 479.105L1793.35 472.574L1794.07 471.726C1795.02 470.622 1795.54 469.219 1795.54 467.767C1795.54 467.624 1795.65 467.508 1795.79 467.508Z" fill="white"/>
<path fill-rule="evenodd" clip-rule="evenodd" d="M1792.19 501.283C1792.19 501.14 1792.31 501.023 1792.45 501.023H1796.92C1797.07 501.023 1797.18 501.14 1797.18 501.283C1797.18 501.426 1797.07 501.542 1796.92 501.542H1792.45C1792.31 501.542 1792.19 501.426 1792.19 501.283Z" fill="white"/>
<path d="M1814.42 514.255V520.954C1812.5 520.871 1810.46 520.747 1808.35 520.56C1800.59 519.886 1793.78 518.621 1789.98 517.294L1790.55 513.54C1794.45 512.969 1800.97 512.938 1808.36 513.581C1810.46 513.778 1812.49 513.996 1814.42 514.255Z" fill="#FE5244"/>
<path d="M1764.23 563.998H1706.39V506.663C1706.39 509.11 1715.9 511.091 1727.64 511.091C1739.38 511.091 1748.89 509.11 1748.89 506.663V506.652L1764.23 563.998Z" fill="#3FB1B5"/>
<path d="M1748.73 505.523C1748.73 507.981 1739.33 509.961 1727.71 509.961C1716.1 509.961 1706.69 507.981 1706.69 505.533V505.523C1706.72 503.086 1716.12 501.105 1727.71 501.105C1739.31 501.105 1748.71 503.086 1748.73 505.523Z" fill="#66B0F0"/>
<path d="M1748.73 505.566C1748.66 507.993 1739.28 509.963 1727.71 509.963C1725.48 509.963 1723.35 509.89 1721.33 509.756V488.425H1710.36C1708.96 488.425 1707.83 487.295 1707.83 485.895V484.184C1707.83 483.416 1708.17 482.732 1708.71 482.265C1708.17 481.798 1707.83 481.114 1707.83 480.347V478.636C1707.83 477.962 1708.1 477.339 1708.54 476.894C1708.1 476.437 1707.83 475.825 1707.83 475.151V473.44C1707.83 472.746 1708.11 472.113 1708.57 471.646C1708.11 471.19 1707.83 470.558 1707.83 469.863V466.762C1707.83 465.362 1708.96 464.232 1710.36 464.232H1724.37C1724.84 463.962 1725.6 463.008 1724.31 462.448L1721.3 461.743C1718.92 460.551 1717.4 458.57 1717.4 455.895H1727.98C1729.76 455.895 1731.34 457.014 1731.94 458.684L1748.47 504.83L1748.73 505.566Z" fill="#E57281"/>
<path d="M1748.78 505.587C1748.75 505.555 1748.73 505.535 1748.73 505.535C1748.73 507.982 1739.33 509.963 1727.71 509.963C1725.48 509.963 1723.35 509.89 1721.33 509.755V501.325C1723.35 501.19 1725.49 501.117 1727.71 501.117C1738.19 501.117 1746.88 502.735 1748.47 504.84C1748.52 504.892 1748.63 505.172 1748.78 505.587Z" fill="#9A3B82"/>
<path d="M1724.61 435.402V443.812C1724.61 448.385 1720.91 452.087 1716.34 452.087C1711.76 452.087 1708.06 448.385 1708.06 443.812V435.402C1708.06 437.456 1711.76 439.115 1716.34 439.115C1720.91 439.115 1724.61 437.456 1724.61 435.402Z" fill="white"/>
<path d="M1716.34 439.114C1720.91 439.114 1724.61 437.452 1724.61 435.402C1724.61 433.352 1720.91 431.689 1716.34 431.689C1711.77 431.689 1708.06 433.352 1708.06 435.402C1708.06 437.452 1711.77 439.114 1716.34 439.114Z" fill="#FFCF2D"/>
<path fill-rule="evenodd" clip-rule="evenodd" d="M1707.75 420.719H1724.92V443.802C1724.92 446.987 1723.19 449.763 1720.62 451.247L1720.46 450.978C1720.46 450.984 1720.46 450.99 1720.46 450.996L1720.61 451.248C1719.35 451.969 1717.89 452.388 1716.34 452.388C1714.81 452.388 1713.38 451.991 1712.13 451.289H1712.13L1712.08 451.263C1712.08 451.26 1712.07 451.257 1712.06 451.254C1712.06 451.252 1712.06 451.251 1712.06 451.249L1712.05 451.247C1709.48 449.763 1707.75 446.987 1707.75 443.802V420.719ZM1720.38 450.667C1722.73 449.279 1724.3 446.726 1724.3 443.802V421.341H1708.37V443.802C1708.37 446.734 1709.95 449.292 1712.31 450.677H1712.31L1712.36 450.702C1712.36 450.706 1712.37 450.709 1712.38 450.713C1712.38 450.714 1712.38 450.716 1712.38 450.717L1712.39 450.718C1713.55 451.387 1714.9 451.766 1716.34 451.766C1717.77 451.766 1719.13 451.377 1720.3 450.708L1720.37 450.667H1720.38Z" fill="#FFCF2D"/>
<path d="M1716.34 424.743C1720.96 424.743 1724.71 423.081 1724.71 421.031C1724.71 418.98 1720.96 417.318 1716.34 417.318C1711.72 417.318 1707.97 418.98 1707.97 421.031C1707.97 423.081 1711.72 424.743 1716.34 424.743Z" fill="white"/>
<path fill-rule="evenodd" clip-rule="evenodd" d="M1708.81 419.764C1708.42 420.175 1708.23 420.602 1708.23 421.03C1708.23 421.458 1708.42 421.886 1708.81 422.296C1709.21 422.708 1709.79 423.091 1710.52 423.418C1712 424.072 1714.05 424.483 1716.34 424.483C1718.62 424.483 1720.68 424.072 1722.15 423.418C1722.89 423.091 1723.47 422.708 1723.86 422.296C1724.25 421.886 1724.45 421.458 1724.45 421.03C1724.45 420.602 1724.25 420.175 1723.86 419.764C1723.47 419.352 1722.89 418.969 1722.15 418.642C1720.68 417.988 1718.62 417.577 1716.34 417.577C1714.05 417.577 1712 417.988 1710.52 418.642C1709.79 418.969 1709.21 419.352 1708.81 419.764ZM1710.31 418.168C1711.87 417.479 1714 417.059 1716.34 417.059C1718.68 417.059 1720.81 417.479 1722.36 418.168C1723.14 418.513 1723.78 418.93 1724.24 419.406C1724.69 419.884 1724.97 420.433 1724.97 421.03C1724.97 421.627 1724.69 422.177 1724.24 422.654C1723.78 423.13 1723.14 423.548 1722.36 423.892C1720.81 424.582 1718.68 425.002 1716.34 425.002C1714 425.002 1711.87 424.582 1710.31 423.892C1709.54 423.548 1708.89 423.13 1708.44 422.654C1707.98 422.177 1707.71 421.627 1707.71 421.03C1707.71 420.433 1707.98 419.884 1708.44 419.406C1708.89 418.93 1709.54 418.513 1710.31 418.168Z" fill="#FFCF2D"/>
<path d="M1716.34 421.59C1717.01 421.59 1717.56 421.042 1717.56 420.366C1717.56 419.69 1717.01 419.143 1716.34 419.143C1715.66 419.143 1715.11 419.69 1715.11 420.366C1715.11 421.042 1715.66 421.59 1716.34 421.59Z" fill="#FFCF2D"/>
<path d="M1713.64 446.581C1714.24 446.581 1714.72 446.098 1714.72 445.502C1714.72 444.907 1714.24 444.424 1713.64 444.424C1713.04 444.424 1712.56 444.907 1712.56 445.502C1712.56 446.098 1713.04 446.581 1713.64 446.581Z" fill="white"/>
<path fill-rule="evenodd" clip-rule="evenodd" d="M1713.64 444.684C1713.19 444.684 1712.82 445.051 1712.82 445.504C1712.82 445.956 1713.19 446.323 1713.64 446.323C1714.09 446.323 1714.46 445.956 1714.46 445.504C1714.46 445.051 1714.09 444.684 1713.64 444.684ZM1712.3 445.504C1712.3 444.765 1712.9 444.166 1713.64 444.166C1714.38 444.166 1714.98 444.765 1714.98 445.504C1714.98 446.242 1714.38 446.841 1713.64 446.841C1712.9 446.841 1712.3 446.242 1712.3 445.504Z" fill="#FFCF2D"/>
<path d="M1720.11 436.295C1720.6 436.295 1721 435.896 1721 435.404C1721 434.911 1720.6 434.512 1720.11 434.512C1719.62 434.512 1719.22 434.911 1719.22 435.404C1719.22 435.896 1719.62 436.295 1720.11 436.295Z" fill="white"/>
<path d="M1711.48 442.985C1711.98 442.985 1712.38 442.586 1712.38 442.093C1712.38 441.6 1711.98 441.201 1711.48 441.201C1710.99 441.201 1710.59 441.6 1710.59 442.093C1710.59 442.586 1710.99 442.985 1711.48 442.985Z" fill="#FFCF2D"/>
<path d="M1724.29 494.229H1708.38C1708.09 494.229 1708.01 493.846 1708.26 493.711L1713.82 491.606C1714.69 491.274 1715.27 490.434 1715.27 489.501V456.359C1715.27 454.16 1714.13 452.097 1712.23 450.987C1713.44 451.682 1714.84 452.076 1716.34 452.076C1717.84 452.076 1719.24 451.671 1720.45 450.977C1718.55 452.076 1717.4 454.15 1717.4 456.348V489.49C1717.4 490.424 1717.99 491.264 1718.86 491.595L1724.42 493.7C1724.66 493.846 1724.58 494.229 1724.29 494.229Z" fill="white"/>
<path fill-rule="evenodd" clip-rule="evenodd" d="M1718.82 451.967C1718.04 452.207 1717.2 452.337 1716.34 452.337C1715.47 452.337 1714.63 452.208 1713.84 451.967C1714.92 453.151 1715.53 454.721 1715.53 456.361V489.503C1715.53 490.544 1714.88 491.48 1713.91 491.85L1713.91 491.851L1708.37 493.947C1708.37 493.947 1708.37 493.947 1708.37 493.947C1708.37 493.948 1708.37 493.949 1708.37 493.95C1708.37 493.953 1708.37 493.958 1708.37 493.965C1708.37 493.968 1708.37 493.97 1708.37 493.972C1708.37 493.972 1708.37 493.972 1708.37 493.972C1708.38 493.972 1708.38 493.972 1708.38 493.972H1724.29C1724.29 493.972 1724.3 493.972 1724.3 493.972C1724.3 493.972 1724.3 493.972 1724.3 493.972C1724.3 493.97 1724.3 493.968 1724.3 493.964C1724.3 493.957 1724.3 493.949 1724.3 493.943C1724.3 493.941 1724.3 493.939 1724.3 493.936C1724.3 493.936 1724.3 493.935 1724.3 493.934L1718.77 491.84L1718.76 491.84C1717.79 491.47 1717.15 490.534 1717.15 489.493V456.35C1717.15 454.718 1717.75 453.149 1718.82 451.967ZM1716.34 451.819C1717.79 451.819 1719.15 451.427 1720.33 450.754L1720.58 451.204C1718.76 452.254 1717.66 454.24 1717.66 456.35V489.493C1717.66 490.318 1718.18 491.061 1718.95 491.355L1718.95 491.355M1713.73 491.366C1713.73 491.366 1713.72 491.366 1713.72 491.366L1708.15 493.477L1708.14 493.485C1707.9 493.615 1707.82 493.869 1707.87 494.081C1707.92 494.297 1708.1 494.491 1708.38 494.491H1724.29C1724.57 494.491 1724.76 494.296 1724.81 494.079C1724.86 493.866 1724.78 493.614 1724.55 493.479L1724.53 493.468L1718.95 491.355M1713.73 491.366C1714.5 491.072 1715.01 490.328 1715.01 489.503V456.361C1715.01 454.251 1713.91 452.274 1712.1 451.213L1712.36 450.764C1713.53 451.437 1714.89 451.819 1716.34 451.819" fill="#FFCF2D"/>
<path d="M1710.45 408.574C1711.23 408.574 1711.86 407.943 1711.86 407.164C1711.86 406.385 1711.23 405.754 1710.45 405.754C1709.67 405.754 1709.04 406.385 1709.04 407.164C1709.04 407.943 1709.67 408.574 1710.45 408.574Z" fill="#FFCF2D"/>
<path d="M1720.11 410.848C1720.79 410.848 1721.34 410.3 1721.34 409.624C1721.34 408.948 1720.79 408.4 1720.11 408.4C1719.44 408.4 1718.89 408.948 1718.89 409.624C1718.89 410.3 1719.44 410.848 1720.11 410.848Z" fill="white"/>
<path fill-rule="evenodd" clip-rule="evenodd" d="M1720.11 408.659C1719.58 408.659 1719.15 409.091 1719.15 409.624C1719.15 410.156 1719.58 410.588 1720.11 410.588C1720.64 410.588 1721.08 410.156 1721.08 409.624C1721.08 409.091 1720.64 408.659 1720.11 408.659ZM1718.63 409.624C1718.63 408.805 1719.29 408.141 1720.11 408.141C1720.93 408.141 1721.59 408.805 1721.59 409.624C1721.59 410.442 1720.93 411.106 1720.11 411.106C1719.29 411.106 1718.63 410.442 1718.63 409.624Z" fill="#FFCF2D"/>
<path d="M1714.12 415.618C1714.61 415.618 1715.01 415.218 1715.01 414.726C1715.01 414.233 1714.61 413.834 1714.12 413.834C1713.63 413.834 1713.23 414.233 1713.23 414.726C1713.23 415.218 1713.63 415.618 1714.12 415.618Z" fill="white"/>
<path fill-rule="evenodd" clip-rule="evenodd" d="M1714.12 414.093C1713.77 414.093 1713.48 414.376 1713.48 414.725C1713.48 415.075 1713.77 415.358 1714.12 415.358C1714.47 415.358 1714.75 415.075 1714.75 414.725C1714.75 414.376 1714.47 414.093 1714.12 414.093ZM1712.97 414.725C1712.97 414.09 1713.48 413.574 1714.12 413.574C1714.75 413.574 1715.27 414.09 1715.27 414.725C1715.27 415.361 1714.75 415.876 1714.12 415.876C1713.48 415.876 1712.97 415.361 1712.97 414.725Z" fill="#FFCF2D"/>
<path d="M1713.65 404.76C1714.06 404.76 1714.39 404.43 1714.39 404.023C1714.39 403.617 1714.06 403.287 1713.65 403.287C1713.25 403.287 1712.92 403.617 1712.92 404.023C1712.92 404.43 1713.25 404.76 1713.65 404.76Z" fill="#FFCF2D"/>
<path d="M1727 467.561V488.435H1710.36C1708.96 488.435 1707.83 487.305 1707.83 485.905V484.194C1707.83 483.426 1708.17 482.742 1708.71 482.275C1708.17 481.809 1707.83 481.124 1707.83 480.357V478.646C1707.83 477.972 1708.1 477.35 1708.54 476.904C1708.1 476.448 1707.83 475.836 1707.83 475.162V473.451C1707.83 472.756 1708.11 472.123 1708.57 471.657C1708.11 471.2 1707.83 470.568 1707.83 469.873V467.571H1727V467.561Z" fill="#E57281"/>
<path fill-rule="evenodd" clip-rule="evenodd" d="M1708.12 479.951C1708.27 479.951 1708.38 480.067 1708.38 480.21C1708.38 481.654 1709.55 482.824 1711 482.824H1724.46C1725.9 482.824 1727.07 481.654 1727.07 480.21C1727.07 480.067 1727.19 479.951 1727.33 479.951C1727.47 479.951 1727.59 480.067 1727.59 480.21C1727.59 481.94 1726.19 483.342 1724.46 483.342H1711C1709.27 483.342 1707.86 481.94 1707.86 480.21C1707.86 480.067 1707.98 479.951 1708.12 479.951Z" fill="#9A3B82"/>
<path fill-rule="evenodd" clip-rule="evenodd" d="M1708.12 474.777C1708.27 474.777 1708.38 474.893 1708.38 475.037C1708.38 476.48 1709.55 477.65 1711 477.65H1724.46C1725.9 477.65 1727.07 476.48 1727.07 475.037C1727.07 474.893 1727.19 474.777 1727.33 474.777C1727.47 474.777 1727.59 474.893 1727.59 475.037C1727.59 476.766 1726.19 478.168 1724.46 478.168H1711C1709.27 478.168 1707.86 476.766 1707.86 475.037C1707.86 474.893 1707.98 474.777 1708.12 474.777Z" fill="#9A3B82"/>
<path fill-rule="evenodd" clip-rule="evenodd" d="M1708.12 469.604C1708.27 469.604 1708.38 469.72 1708.38 469.863C1708.38 471.306 1709.55 472.476 1711 472.476H1724.46C1725.9 472.476 1727.07 471.306 1727.07 469.863C1727.07 469.72 1727.19 469.604 1727.33 469.604C1727.47 469.604 1727.59 469.72 1727.59 469.863C1727.59 471.593 1726.19 472.994 1724.46 472.994H1711C1709.27 472.994 1707.86 471.593 1707.86 469.863C1707.86 469.72 1707.98 469.604 1708.12 469.604Z" fill="#9A3B82"/>
<path fill-rule="evenodd" clip-rule="evenodd" d="M1727.33 465.725C1727.47 465.725 1727.59 465.841 1727.59 465.984V485.386C1727.59 487.116 1726.19 488.518 1724.46 488.518H1710.86C1710.72 488.518 1710.6 488.402 1710.6 488.258C1710.6 488.115 1710.72 487.999 1710.86 487.999H1724.46C1725.9 487.999 1727.07 486.829 1727.07 485.386V465.984C1727.07 465.841 1727.19 465.725 1727.33 465.725Z" fill="#9A3B82"/>
<path fill-rule="evenodd" clip-rule="evenodd" d="M1724.27 464.501C1723.42 464.501 1722.72 465.194 1722.72 466.046C1722.72 467.03 1721.92 467.819 1720.95 467.819H1713.23C1712.63 467.819 1712.15 467.33 1712.15 466.73C1712.15 466.131 1712.63 465.642 1713.23 465.642H1714.61C1714.76 465.642 1714.87 465.758 1714.87 465.901C1714.87 466.044 1714.76 466.16 1714.61 466.16H1713.23C1712.92 466.16 1712.66 466.417 1712.66 466.73C1712.66 467.044 1712.92 467.301 1713.23 467.301H1720.95C1721.64 467.301 1722.2 466.742 1722.2 466.046C1722.2 464.907 1723.13 463.982 1724.27 463.982H1725.52C1726.66 463.982 1727.59 464.907 1727.59 466.046V469.406C1727.59 469.549 1727.47 469.665 1727.33 469.665C1727.18 469.665 1727.07 469.549 1727.07 469.406V466.046C1727.07 465.194 1726.38 464.501 1725.52 464.501H1724.27Z" fill="#9A3B82"/>
<path d="M1808.78 359.029L1774.26 394.432L1734.45 350.557L1777.9 319.986L1808.78 359.029Z" fill="#3FB1B5"/>
<path fill-rule="evenodd" clip-rule="evenodd" d="M1731.61 350.412L1777.12 318.509L1776.76 318L1730.68 350.308L1772.68 396.342L1773.14 395.923L1731.61 350.412Z" fill="#FFCF2D"/>
<path fill-rule="evenodd" clip-rule="evenodd" d="M1784.76 363.471C1784.16 359.368 1780.34 356.52 1776.23 357.128L1773.63 357.511L1773.54 356.896L1776.14 356.512C1776.14 356.512 1776.14 356.512 1776.14 356.512C1780.59 355.855 1784.72 358.939 1785.38 363.38L1785.38 363.38L1787.65 378.852C1787.65 378.852 1787.65 378.852 1787.65 378.852C1788.39 383.861 1793.77 386.729 1798.34 384.538L1798.34 384.538L1809.19 379.343L1809.46 379.904L1798.6 385.099" fill="#FFCF2D"/>
<path d="M1823.17 382.59C1824.28 383.191 1825.33 383.814 1826.28 384.436C1826.12 385.338 1825.81 386.23 1825.35 387.091C1824.89 387.941 1824.31 388.698 1823.65 389.33C1822.6 388.874 1821.5 388.345 1820.39 387.744C1814.84 384.747 1810.98 381.169 1811.74 379.749C1812.51 378.328 1817.62 379.593 1823.17 382.59Z" fill="#FFCF2D"/>
<path fill-rule="evenodd" clip-rule="evenodd" d="M1810.56 378.39C1810.04 378.39 1809.62 378.812 1809.62 379.333C1809.62 379.855 1810.04 380.277 1810.56 380.277C1811.08 380.277 1811.51 379.855 1811.51 379.333C1811.51 378.812 1811.08 378.39 1810.56 378.39ZM1809 379.333C1809 378.469 1809.7 377.768 1810.56 377.768C1811.43 377.768 1812.13 378.469 1812.13 379.333C1812.13 380.198 1811.43 380.899 1810.56 380.899C1809.7 380.899 1809 380.198 1809 379.333Z" fill="#66B0F0"/>
<path d="M1687.17 525.156V564.002H1642.28V541.115C1643.26 543.666 1654.68 542.038 1666.88 537.372C1677.85 533.172 1686.32 528.008 1687.17 525.156Z" fill="#FE5244"/>
<path d="M1687.17 524.026C1686.31 526.878 1677.85 532.042 1666.87 536.242C1654.68 540.908 1643.26 542.536 1642.27 539.985C1641.29 537.434 1651.14 531.658 1663.33 526.992C1675.52 522.325 1686.2 520.614 1687.17 523.165C1687.28 523.425 1687.28 523.715 1687.17 524.026Z" fill="#66B0F0"/>
<path d="M1677.67 498.267V531.181L1675.19 532.435C1672.68 533.659 1669.87 534.872 1666.88 536.013C1661.39 538.118 1656.05 539.601 1651.76 540.368L1654.23 530.673L1658.25 514.848C1656.34 514.848 1654.54 513.998 1653.33 512.525L1636.81 493.735C1639.64 491.153 1643.87 494.668 1643.87 494.668L1642.28 486.569C1641.91 484.651 1642.47 482.66 1643.79 481.219L1648.8 475.712C1649.8 474.623 1651.59 475.049 1652.01 476.459L1655.58 488.768C1655.58 488.768 1664.43 495.529 1666.09 495.529C1667.97 495.529 1668.62 494.005 1665.12 488.996C1662.48 485.232 1665.12 482.484 1665.12 482.484L1673.69 489.701C1676.21 491.837 1677.67 494.969 1677.67 498.267Z" fill="white"/>
<path fill-rule="evenodd" clip-rule="evenodd" d="M1649 475.887C1649 475.887 1649 475.887 1649 475.887L1643.98 481.393C1642.72 482.774 1642.18 484.682 1642.54 486.519C1642.54 486.52 1642.54 486.52 1642.54 486.52L1644.26 495.333L1643.7 494.868L1643.7 494.866C1643.7 494.864 1643.7 494.862 1643.69 494.859C1643.69 494.853 1643.67 494.844 1643.66 494.832C1643.63 494.809 1643.58 494.773 1643.53 494.729C1643.41 494.641 1643.24 494.517 1643.02 494.376C1642.59 494.093 1641.99 493.744 1641.3 493.474C1639.99 492.958 1638.45 492.756 1637.17 493.761L1653.52 512.357L1653.53 512.36C1654.69 513.773 1656.42 514.589 1658.25 514.589H1658.59L1654.48 530.736L1652.11 540.041C1656.32 539.257 1661.48 537.806 1666.79 535.771L1666.79 535.771C1669.77 534.633 1672.57 533.423 1675.07 532.203C1675.07 532.203 1675.07 532.202 1675.07 532.202L1677.41 531.021V498.266C1677.41 495.045 1675.99 491.986 1673.53 489.899C1673.53 489.899 1673.53 489.899 1673.53 489.899L1665.15 482.85C1665.1 482.919 1665.03 483.007 1664.96 483.113C1664.77 483.413 1664.53 483.851 1664.38 484.399C1664.07 485.486 1664.06 487.032 1665.33 488.847C1666.21 490.106 1666.84 491.154 1667.25 492.018C1667.66 492.88 1667.86 493.576 1667.88 494.13C1667.9 494.693 1667.74 495.128 1667.39 495.413C1667.05 495.688 1666.59 495.788 1666.09 495.788C1665.82 495.788 1665.45 495.658 1665.06 495.474C1664.64 495.283 1664.15 495.014 1663.62 494.695C1662.54 494.056 1661.28 493.207 1660.06 492.361C1658.85 491.514 1657.69 490.667 1656.83 490.032C1656.4 489.715 1656.05 489.45 1655.8 489.265C1655.68 489.173 1655.59 489.1 1655.52 489.05C1655.49 489.025 1655.46 489.006 1655.44 488.993L1655.42 488.974C1655.42 488.974 1655.42 488.974 1655.58 488.768L1655.42 488.974L1655.35 488.922L1651.76 476.532C1651.76 476.531 1651.76 476.531 1651.76 476.531C1651.4 475.313 1649.85 474.949 1649 475.887ZM1655.8 488.613L1652.26 476.386L1652.26 476.385C1651.79 474.783 1649.75 474.298 1648.61 475.537L1648.61 475.537L1643.59 481.043C1642.22 482.546 1641.64 484.62 1642.03 486.619L1643.49 494.063C1643.43 494.025 1643.37 493.984 1643.31 493.942C1642.85 493.647 1642.22 493.278 1641.49 492.992C1640.05 492.423 1638.16 492.152 1636.63 493.543L1636.44 493.715L1653.13 512.693C1654.32 514.138 1656.06 515.006 1657.92 515.099L1653.98 530.608L1651.41 540.694L1651.81 540.623C1656.12 539.853 1661.47 538.365 1666.97 536.255C1666.97 536.255 1666.97 536.255 1666.97 536.255L1666.88 536.013L1666.97 536.255C1666.97 536.255 1666.97 536.255 1666.97 536.255C1669.97 535.112 1672.78 533.895 1675.3 532.668L1675.3 532.667L1675.3 532.666L1677.92 531.34V498.266C1677.92 494.892 1676.44 491.689 1673.86 489.503L1665.1 482.129L1664.93 482.304L1665.12 482.483C1664.93 482.304 1664.93 482.304 1664.93 482.304L1664.93 482.305L1664.93 482.308C1664.92 482.31 1664.92 482.312 1664.92 482.316C1664.91 482.322 1664.9 482.331 1664.89 482.343C1664.87 482.367 1664.84 482.401 1664.81 482.446C1664.74 482.534 1664.64 482.664 1664.53 482.83C1664.31 483.163 1664.05 483.648 1663.88 484.257C1663.53 485.486 1663.54 487.195 1664.9 489.144C1665.78 490.389 1666.38 491.411 1666.78 492.241C1667.17 493.074 1667.35 493.697 1667.36 494.151C1667.38 494.595 1667.25 494.855 1667.06 495.012C1666.86 495.179 1666.53 495.27 1666.09 495.27C1665.95 495.27 1665.67 495.188 1665.27 495.003C1664.88 494.823 1664.41 494.564 1663.88 494.25C1662.83 493.621 1661.57 492.779 1660.36 491.936C1659.15 491.092 1658 490.249 1657.14 489.616C1656.71 489.299 1656.36 489.036 1656.12 488.851C1655.99 488.759 1655.9 488.686 1655.83 488.637C1655.82 488.628 1655.81 488.62 1655.8 488.613Z" fill="#FFCF2D"/>
<path fill-rule="evenodd" clip-rule="evenodd" d="M1645.84 478.598C1646.94 477.397 1648.85 477.867 1649.3 479.415L1652.71 491.179L1658.92 496.147L1658.6 496.551L1652.26 491.481L1648.8 479.56C1648.8 479.56 1648.8 479.56 1648.8 479.56C1648.46 478.392 1647.04 478.052 1646.23 478.947L1645.84 478.598Z" fill="#FFCF2D"/>
<path fill-rule="evenodd" clip-rule="evenodd" d="M1642.85 482.061C1643.89 480.915 1645.77 481.357 1646.2 482.837L1649.42 493.969L1654.82 498.356L1654.49 498.759L1648.97 494.269L1645.7 482.982C1645.39 481.89 1644 481.565 1643.23 482.409L1642.85 482.061Z" fill="#FFCF2D"/>
<path fill-rule="evenodd" clip-rule="evenodd" d="M1644.02 494.48L1650 499.489L1649.66 499.886L1643.69 494.878L1644.02 494.48Z" fill="#FFCF2D"/>
<path fill-rule="evenodd" clip-rule="evenodd" d="M1665.23 515.108H1658.25V514.59H1665.23V515.108Z" fill="#FFCF2D"/>
<path d="M1677.67 522.697V531.398C1674.57 533.036 1670.89 534.695 1666.88 536.24C1661.38 538.345 1656.04 539.828 1651.74 540.596L1654.23 530.889C1656.99 529.562 1660.08 528.235 1663.34 526.99C1668.62 524.979 1673.62 523.506 1677.67 522.697Z" fill="#FFCF2D"/>
<path fill-rule="evenodd" clip-rule="evenodd" d="M1673.48 420.13L1670.35 413.258L1670.92 413L1674.09 419.961L1674.1 420.009C1674.42 422.742 1672.47 425.208 1669.74 425.539L1669.74 425.54C1667.35 425.82 1665.64 427.988 1665.92 430.379C1665.92 430.379 1665.92 430.379 1665.92 430.379L1666.38 434.216L1665.76 434.289L1665.31 430.452C1664.98 427.721 1666.93 425.243 1669.66 424.922C1672.04 424.633 1673.74 422.501 1673.48 420.13Z" fill="#FFCF2D"/>
<path d="M1707.12 390.906L1723.73 364.982L1666.59 364.525L1647.87 414.363L1678.78 412.911L1707.12 390.906Z" fill="#FE5244"/>
<path fill-rule="evenodd" clip-rule="evenodd" d="M1664.46 362.045L1724.42 362.721L1724.41 363.344L1664.89 362.672L1645.12 414.774L1644.54 414.554L1664.46 362.045Z" fill="#FFCF2D"/>
<path d="M1706.09 387.019C1709.41 392.712 1703.77 402.19 1693.48 408.184C1683.19 414.178 1672.17 414.416 1668.85 408.723C1668.39 407.945 1668.11 407.105 1667.98 406.203C1667.15 400.51 1672.57 392.733 1681.46 387.558C1690.35 382.384 1699.79 381.492 1704.33 385.018C1705.04 385.578 1705.63 386.241 1706.09 387.019Z" fill="#66B0F0"/>
<path fill-rule="evenodd" clip-rule="evenodd" d="M1694.56 383.333C1690.57 383.757 1686.03 385.257 1681.62 387.826C1677.21 390.394 1673.66 393.603 1671.33 396.866C1668.99 400.135 1667.89 403.421 1668.29 406.156C1668.42 407.023 1668.68 407.824 1669.12 408.564L1669.12 408.565C1670.7 411.269 1674.14 412.62 1678.55 412.524C1682.94 412.428 1688.22 410.889 1693.32 407.914C1698.43 404.938 1702.37 401.105 1704.62 397.328C1706.88 393.541 1707.4 389.879 1705.82 387.175C1705.39 386.433 1704.82 385.798 1704.14 385.261C1701.95 383.568 1698.55 382.908 1694.56 383.333ZM1694.49 382.714C1698.57 382.281 1702.16 382.938 1704.52 384.77L1704.52 384.771C1705.26 385.354 1705.88 386.047 1706.36 386.86L1706.36 386.861C1708.1 389.85 1707.46 393.773 1705.15 397.646C1702.84 401.53 1698.82 405.433 1693.64 408.451C1688.46 411.47 1683.08 413.047 1678.56 413.146C1674.05 413.244 1670.32 411.867 1668.58 408.879C1668.1 408.063 1667.81 407.185 1667.67 406.248L1667.67 406.247C1667.24 403.289 1668.44 399.84 1670.82 396.504C1673.22 393.161 1676.83 389.894 1681.3 387.288C1685.78 384.682 1690.4 383.149 1694.49 382.714Z" fill="white"/>
<path fill-rule="evenodd" clip-rule="evenodd" d="M1693.76 378.646C1689.35 378.744 1684.07 380.286 1678.96 383.26C1673.84 386.239 1669.9 390.078 1667.64 393.863C1665.38 397.658 1664.85 401.342 1666.44 404.07L1666.44 404.07L1667.73 406.281C1667.73 406.267 1667.72 406.252 1667.72 406.237L1667.98 406.202L1667.72 406.239C1667.3 403.3 1668.49 399.865 1670.87 396.534C1673.26 393.198 1676.86 389.936 1681.33 387.333C1685.8 384.73 1690.42 383.2 1694.5 382.766C1698.57 382.333 1702.14 382.991 1704.49 384.811L1704.49 384.812C1704.5 384.821 1704.51 384.83 1704.52 384.838L1703.23 382.627C1701.64 379.899 1698.17 378.549 1693.76 378.646ZM1706.31 386.886L1703.68 382.366L1703.68 382.366C1701.95 379.4 1698.24 378.029 1693.75 378.128C1689.24 378.228 1683.87 379.802 1678.7 382.812L1678.7 382.812C1673.52 385.826 1669.5 389.723 1667.2 393.598C1664.89 397.464 1664.26 401.366 1665.99 404.331C1665.99 404.331 1665.99 404.331 1665.99 404.331L1668.61 408.815C1668.61 408.828 1668.62 408.84 1668.63 408.853L1669.07 408.591L1669.07 408.591C1669.07 408.579 1669.06 408.567 1669.05 408.555C1668.63 407.817 1668.35 407.021 1668.24 406.166L1668.24 406.166L1668.24 406.165C1667.84 403.411 1668.95 400.111 1671.29 396.836C1673.63 393.566 1677.18 390.352 1681.59 387.781C1686.01 385.209 1690.55 383.706 1694.55 383.282C1698.56 382.856 1701.97 383.516 1704.17 385.221C1704.86 385.762 1705.43 386.401 1705.87 387.149L1706.31 386.887L1706.31 386.886Z" fill="white"/>
<path d="M1665.18 448.232C1664.77 449.425 1664.34 450.565 1663.88 451.613C1662.96 451.602 1662.03 451.447 1661.11 451.136C1660.19 450.825 1659.36 450.389 1658.61 449.84C1658.88 448.73 1659.22 447.558 1659.62 446.366C1661.63 440.393 1664.49 435.975 1666.03 436.483C1667.56 437.002 1667.18 442.259 1665.18 448.232Z" fill="#FFCF2D"/>
<path fill-rule="evenodd" clip-rule="evenodd" d="M1666.24 434.304C1665.72 434.304 1665.29 434.726 1665.29 435.248C1665.29 435.769 1665.72 436.191 1666.24 436.191C1666.76 436.191 1667.18 435.769 1667.18 435.248C1667.18 434.726 1666.76 434.304 1666.24 434.304ZM1664.67 435.248C1664.67 434.383 1665.37 433.682 1666.24 433.682C1667.1 433.682 1667.8 434.383 1667.8 435.248C1667.8 436.112 1667.1 436.813 1666.24 436.813C1665.37 436.813 1664.67 436.112 1664.67 435.248Z" fill="#66B0F0"/>
<path d="M1612.69 521.554V563.997H1566.07V501.529C1566.98 504.588 1576.74 510.966 1588.85 516.296C1601.74 521.989 1612.43 524.333 1612.69 521.554Z" fill="#66B0F0"/>
<path d="M1612.7 520.424C1612.42 523.204 1601.74 520.85 1588.85 515.167C1576.74 509.827 1566.98 503.449 1566.07 500.4C1566.01 500.203 1565.99 500.017 1566.01 499.851C1566.28 497.072 1576.96 499.426 1589.85 505.108C1602.74 510.791 1612.98 517.645 1612.7 520.424Z" fill="#9A3B82"/>
<path d="M1585.1 459.544C1586.21 457.262 1588.52 455.811 1591.06 455.811H1598.4L1598.78 485.282L1603.89 512.368L1605.52 520.975C1601.21 520.021 1595.32 518.019 1588.87 515.178C1585.22 513.571 1580.64 511.186 1577.59 509.506V473.647C1577.59 473.159 1577.69 472.672 1577.85 472.216L1585.1 459.544Z" fill="#A0505A"/>
<path d="M1605.51 520.975C1601.19 520.021 1595.3 518.019 1588.85 515.178C1585.2 513.571 1580.63 511.186 1577.58 509.506V500.494C1580.91 501.562 1585.84 503.346 1589.85 505.109C1595.26 507.494 1599.99 509.951 1603.89 512.368L1605.51 520.975Z" fill="#73325A"/>
<path d="M1632.81 422.68L1593.81 494.439C1592.37 497.094 1588.4 497.726 1584.94 495.849C1581.49 493.972 1579.86 490.302 1581.3 487.636L1620.31 415.877L1632.81 422.68Z" fill="white"/>
<path fill-rule="evenodd" clip-rule="evenodd" d="M1620.2 415.523L1633.16 422.574L1594.04 494.561C1593.27 495.974 1591.84 496.833 1590.17 497.098C1588.51 497.363 1586.59 497.039 1584.82 496.075C1581.3 494.162 1579.54 490.354 1581.08 487.511L1581.08 487.511L1620.2 415.523ZM1620.41 416.227L1581.53 487.758C1580.19 490.246 1581.68 493.779 1585.07 495.62C1586.75 496.533 1588.55 496.831 1590.09 496.586C1591.63 496.34 1592.91 495.555 1593.58 494.314L1632.46 422.782L1620.41 416.227Z" fill="#FFCF2D"/>
<path d="M1632.81 422.696C1634.25 420.039 1632.62 416.365 1629.17 414.489C1625.72 412.612 1621.75 413.245 1620.31 415.902C1618.86 418.559 1620.49 422.234 1623.94 424.11C1627.39 425.986 1631.36 425.353 1632.81 422.696Z" fill="#66B0F0"/>
<path fill-rule="evenodd" clip-rule="evenodd" d="M1620.53 416.026C1619.19 418.505 1620.68 422.042 1624.06 423.881C1627.45 425.721 1631.23 425.051 1632.58 422.572C1633.93 420.092 1632.43 416.556 1629.05 414.716C1625.66 412.876 1621.88 413.546 1620.53 416.026ZM1623.82 424.337C1620.3 422.425 1618.54 418.613 1620.08 415.778C1621.62 412.944 1625.78 412.348 1629.29 414.26C1632.81 416.173 1634.57 419.985 1633.03 422.819C1631.49 425.654 1627.34 426.249 1623.82 424.337Z" fill="#FFCF2D"/>
<path d="M1607.33 450.148L1625.76 435.102L1625.47 440.452L1631.37 441.925L1617.93 450.221C1621.54 449.599 1625.89 449.091 1629.46 449.371C1633.73 449.702 1632.29 454.69 1630.7 458.952C1634.43 458.589 1646.95 451.009 1651.67 452.44C1654.55 453.311 1653.51 459.191 1652.68 462.437C1653.89 462.499 1659.97 462.426 1659.97 462.426L1656.76 465.361L1658.52 468.296C1651.68 468.596 1651.59 467.518 1652.45 462.665C1652.6 457.386 1646.75 462.457 1634.3 465.433C1628.13 466.906 1628.92 462.893 1630.45 458.714C1629.84 456.795 1625.26 454.711 1610.57 458.548L1607.33 450.148Z" fill="#FE5244"/>
<path d="M1607.6 459.314C1610.61 459.314 1613.05 456.877 1613.05 453.87C1613.05 450.863 1610.61 448.426 1607.6 448.426C1604.6 448.426 1602.16 450.863 1602.16 453.87C1602.16 456.877 1604.6 459.314 1607.6 459.314Z" fill="white"/>
<path fill-rule="evenodd" clip-rule="evenodd" d="M1607.6 448.685C1604.74 448.685 1602.42 451.006 1602.42 453.869C1602.42 456.733 1604.74 459.054 1607.6 459.054C1610.47 459.054 1612.79 456.733 1612.79 453.869C1612.79 451.006 1610.47 448.685 1607.6 448.685ZM1601.9 453.869C1601.9 450.72 1604.45 448.166 1607.6 448.166C1610.75 448.166 1613.31 450.72 1613.31 453.869C1613.31 457.019 1610.75 459.573 1607.6 459.573C1604.45 459.573 1601.9 457.019 1601.9 453.869Z" fill="#FE5244"/>
<path d="M1605.73 455.811V456.153C1605.73 459.637 1602.91 462.468 1599.41 462.468H1592.78V455.811H1605.73Z" fill="#A0505A"/>
<path d="M1613.79 468.596L1612.04 472.702L1610 477.504L1608.89 480.107L1607.2 484.078C1607.16 484.182 1607.1 484.296 1607.04 484.389C1607.04 484.4 1607.03 484.4 1607.03 484.41C1606.49 485.343 1605.45 485.924 1604.3 485.924H1590.87C1589.24 485.924 1588.13 484.379 1588.73 482.958L1589.7 480.667L1591.85 475.627L1593.7 471.282L1595.32 467.466C1595.8 466.346 1596.95 465.609 1598.24 465.609H1611.67C1613.29 465.63 1614.4 467.175 1613.79 468.596Z" fill="#A0505A"/>
<path fill-rule="evenodd" clip-rule="evenodd" d="M1596.5 470.565C1595.7 470.565 1594.96 470.907 1594.45 471.475C1594.35 471.581 1594.19 471.59 1594.08 471.494C1593.98 471.399 1593.97 471.235 1594.06 471.128C1594.67 470.452 1595.55 470.047 1596.5 470.047H1609.33C1610.83 470.047 1611.92 471.344 1611.77 472.73C1611.76 472.872 1611.63 472.975 1611.49 472.959C1611.34 472.944 1611.24 472.816 1611.26 472.673C1611.37 471.591 1610.52 470.565 1609.33 470.565H1596.5Z" fill="#73325A"/>
<path fill-rule="evenodd" clip-rule="evenodd" d="M1594.64 475.034C1593.89 475.034 1593.2 475.328 1592.7 475.829C1592.6 475.931 1592.43 475.931 1592.33 475.829C1592.23 475.728 1592.23 475.564 1592.33 475.463C1592.93 474.864 1593.75 474.516 1594.64 474.516H1607.47C1609.11 474.516 1610.25 476.046 1609.83 477.561C1609.8 477.699 1609.65 477.78 1609.52 477.742C1609.38 477.703 1609.3 477.561 1609.33 477.423C1609.66 476.242 1608.77 475.034 1607.47 475.034H1594.64Z" fill="#73325A"/>
<path fill-rule="evenodd" clip-rule="evenodd" d="M1592.58 480.116C1591.86 480.116 1591.18 480.391 1590.68 480.865C1590.58 480.963 1590.41 480.958 1590.31 480.854C1590.22 480.75 1590.22 480.586 1590.33 480.488C1590.92 479.924 1591.72 479.598 1592.58 479.598H1605.41C1607.09 479.598 1608.27 481.243 1607.72 482.805C1607.68 482.94 1607.53 483.011 1607.39 482.964C1607.26 482.916 1607.19 482.768 1607.23 482.633C1607.66 481.416 1606.74 480.116 1605.41 480.116H1592.58Z" fill="#73325A"/>
<path d="M1636.89 347.985C1637.75 347.062 1638.61 346.201 1639.46 345.434C1640.29 345.817 1641.08 346.346 1641.79 347.01C1642.5 347.673 1643.09 348.42 1643.54 349.219C1642.83 350.121 1642.04 351.044 1641.18 351.967C1636.89 356.581 1632.46 359.433 1631.27 358.334C1630.09 357.235 1632.6 352.599 1636.89 347.985Z" fill="#FFCF2D"/>
<path d="M1606.75 384.527L1605.38 385.377C1600.42 388.457 1590.74 381.831 1583.78 370.58C1576.81 359.328 1575.2 347.724 1580.15 344.645L1581.56 343.773L1589.95 368.454L1606.75 384.527Z" fill="#66B0F0"/>
<path d="M1620.65 397.832L1606.75 384.527L1589.94 368.443L1581.55 343.774L1574.05 321.717L1608.97 349.85L1620.65 397.832Z" fill="#66B0F0"/>
<path fill-rule="evenodd" clip-rule="evenodd" d="M1573.42 320.803L1609.25 349.675L1621.2 398.794L1606.54 384.753L1589.67 368.616L1581.26 343.874L1573.42 320.803ZM1574.69 322.632L1581.85 343.674L1590.21 368.272L1606.97 384.303L1620.09 396.871L1608.69 350.027L1574.69 322.632Z" fill="white"/>
<path fill-rule="evenodd" clip-rule="evenodd" d="M1574.98 320.529L1610.42 348.439L1622.04 396.442L1621.44 396.588L1609.87 348.795L1574.6 321.018L1574.98 320.529Z" fill="#9A3B82"/>
<path fill-rule="evenodd" clip-rule="evenodd" d="M1615.14 360.273C1614.09 357.007 1610.69 355.097 1607.35 355.908L1607.34 355.908C1603.82 356.76 1601.65 360.314 1602.5 363.839L1601.9 363.985C1600.97 360.127 1603.34 356.236 1607.2 355.304C1610.86 354.415 1614.58 356.507 1615.73 360.084L1615.73 360.085L1618.64 369.492L1618.64 369.493C1620.16 374.388 1627.21 374.01 1628.19 368.975L1629.87 360.337L1630.49 360.456L1628.81 369.094L1628.81 369.095C1627.7 374.761 1619.75 375.192 1618.05 369.677M1618.05 369.676L1615.14 360.274C1615.14 360.274 1615.14 360.273 1615.14 360.273" fill="#FFCF2D"/>
<path fill-rule="evenodd" clip-rule="evenodd" d="M1630.57 358.439C1630.05 358.439 1629.63 358.861 1629.63 359.382C1629.63 359.903 1630.05 360.326 1630.57 360.326C1631.09 360.326 1631.52 359.903 1631.52 359.382C1631.52 358.861 1631.09 358.439 1630.57 358.439ZM1629.01 359.382C1629.01 358.517 1629.71 357.816 1630.57 357.816C1631.44 357.816 1632.14 358.517 1632.14 359.382C1632.14 360.247 1631.44 360.948 1630.57 360.948C1629.71 360.948 1629.01 360.247 1629.01 359.382Z" fill="#66B0F0"/>
</g>
<g clip-path="url(#clip2_2492_17132)">
<path d="M337.003 549.79V584.001H285.535L295.563 531.467C295.242 533.541 301.661 537.429 310.445 541.329C313.597 542.728 317.113 544.118 320.867 545.435C326.923 547.571 332.502 549.023 337.003 549.79C337.003 549.79 336.993 549.79 337.003 549.79Z" fill="#9A3B82"/>
<path d="M337.003 539.503V548.659C332.502 547.892 326.933 546.451 320.856 544.314C306.535 539.285 295.511 533.073 296.133 530.284C296.144 530.242 296.154 530.201 296.165 530.17C297.129 527.443 309.812 529.33 324.33 534.422C328.997 536.06 333.208 537.75 336.744 539.378C336.827 539.42 336.91 539.461 337.003 539.503Z" fill="#FFCF2D"/>
<path d="M329.94 460.236C324.921 460.236 320.856 464.301 320.856 469.31V494.177C320.856 499.186 316.79 503.251 311.782 503.251H275.402C280.422 503.251 284.476 499.186 284.476 494.177V469.31C284.476 464.291 288.542 460.236 293.55 460.236H329.94Z" fill="white"/>
<path fill-rule="evenodd" clip-rule="evenodd" d="M293.55 460.495C288.685 460.495 284.736 464.434 284.736 469.309V494.176C284.736 498.251 282.126 501.719 278.48 502.991H311.782C316.647 502.991 320.596 499.042 320.596 494.176V469.309C320.596 465.234 323.213 461.766 326.861 460.495H293.55ZM329.94 459.977H293.55C288.399 459.977 284.217 464.147 284.217 469.309V494.176C284.217 499.042 280.278 502.991 275.402 502.991V503.509H311.782C316.934 503.509 321.115 499.328 321.115 494.176V469.309C321.115 464.444 325.064 460.495 329.94 460.495V459.977Z" fill="#FFCF2D"/>
<path d="M314.032 473.105H290.865V494.602H314.032V473.105Z" fill="white"/>
<path fill-rule="evenodd" clip-rule="evenodd" d="M290.605 472.846H314.291V494.861H290.605V472.846ZM291.124 473.364V494.342H313.773V473.364H291.124Z" fill="#FFCF2D"/>
<path fill-rule="evenodd" clip-rule="evenodd" d="M290.865 475.916H314.022V476.435H290.865V475.916Z" fill="#FFCF2D"/>
<path fill-rule="evenodd" clip-rule="evenodd" d="M290.865 478.984H314.022V479.503H290.865V478.984Z" fill="#FFCF2D"/>
<path fill-rule="evenodd" clip-rule="evenodd" d="M290.865 482.064H314.022V482.583H290.865V482.064Z" fill="#FFCF2D"/>
<path fill-rule="evenodd" clip-rule="evenodd" d="M290.865 485.135H314.022V485.653H290.865V485.135Z" fill="#FFCF2D"/>
<path fill-rule="evenodd" clip-rule="evenodd" d="M290.865 488.215H314.022V488.733H290.865V488.215Z" fill="#FFCF2D"/>
<path fill-rule="evenodd" clip-rule="evenodd" d="M290.865 491.283H314.022V491.802H290.865V491.283Z" fill="#FFCF2D"/>
<path d="M320.856 469.31C320.856 464.322 324.88 460.278 329.848 460.236C334.825 460.278 338.839 464.322 338.839 469.31H320.856Z" fill="#66B0F0"/>
<path fill-rule="evenodd" clip-rule="evenodd" d="M329.848 459.977L329.85 459.977C334.97 460.019 339.098 464.179 339.098 469.309V469.569H320.597V469.309C320.597 464.179 324.736 460.019 329.845 459.977L329.848 459.977ZM329.848 460.495C325.11 460.536 321.256 464.325 321.119 469.05H338.576C338.44 464.325 334.595 460.536 329.848 460.495Z" fill="#FFCF2D"/>
<path d="M311.824 503.479C311.813 503.479 311.793 503.479 311.782 503.479H275.538C275.517 503.479 275.496 503.479 275.476 503.479C271.753 503.427 268.569 501.125 267.221 497.869H303.538C304.896 501.125 308.08 503.427 311.824 503.479Z" fill="#FFCF2D"/>
<path d="M292.38 470.635H288.19V467.275H290.16V469.142C290.16 469.183 290.181 469.215 290.202 469.225L290.212 469.235L292.38 470.635Z" fill="#FE5244"/>
<path d="M294.007 468.438V468.884C294.007 468.967 293.997 469.05 293.997 469.133C293.997 469.154 293.987 469.185 293.987 469.205C293.976 469.247 293.976 469.288 293.966 469.33C293.852 469.9 293.51 470.367 293.084 470.543C293.053 470.554 293.022 470.564 292.991 470.574C292.939 470.595 292.877 470.605 292.825 470.616C292.804 470.616 292.784 470.626 292.763 470.626L290.388 469.081C290.409 468.718 290.637 468.428 290.907 468.428H294.007V468.438Z" fill="#FE5244"/>
<path d="M317.144 467.275V470.635H312.955L315.112 469.235L315.122 469.225C315.132 469.215 315.132 469.215 315.143 469.215C315.143 469.204 315.153 469.204 315.153 469.194C315.153 469.194 315.153 469.183 315.163 469.183C315.163 469.173 315.163 469.173 315.174 469.173C315.174 469.173 315.174 469.173 315.174 469.163C315.174 469.152 315.174 469.152 315.174 469.142V467.275H317.144Z" fill="#FE5244"/>
<path d="M314.965 469.092L312.591 470.638C312.528 470.627 312.466 470.617 312.404 470.606C312.383 470.596 312.363 470.596 312.342 470.586C312.311 470.575 312.29 470.565 312.259 470.555C312.238 470.544 312.207 470.534 312.186 470.523C311.865 470.347 311.595 470.005 311.46 469.58C311.44 469.518 311.419 469.455 311.408 469.393C311.398 469.372 311.398 469.341 311.388 469.31C311.367 469.175 311.346 469.041 311.346 468.895V468.449H314.457C314.717 468.439 314.945 468.729 314.965 469.092Z" fill="#FE5244"/>
<path d="M314.966 465.576V468.501C314.946 468.48 314.925 468.449 314.904 468.428C314.863 468.387 314.821 468.355 314.78 468.324C314.676 468.262 314.562 468.221 314.448 468.221H290.897C290.772 468.221 290.658 468.262 290.565 468.324C290.524 468.355 290.482 468.387 290.441 468.428C290.42 468.449 290.399 468.469 290.378 468.501V465.576C290.378 465.182 290.607 464.871 290.897 464.871H314.448C314.728 464.871 314.966 465.193 314.966 465.576Z" fill="#FE5244"/>
<path d="M337.003 508.011V548.66H336.993C332.492 547.893 326.923 546.452 320.846 544.315C317.092 542.998 313.576 541.599 310.424 540.209L312.114 530.772L314.987 514.751C305.975 511.93 304.513 503.261 304.513 503.261H311.762C316.781 503.261 320.836 499.196 320.836 494.188V491.201H316.179C312.913 491.201 310.258 487.986 310.258 484.72V483.662H320.608C322.526 483.662 324.33 484.564 325.482 486.099L333.052 496.21C335.624 499.611 337.003 503.749 337.003 508.011Z" fill="#A0505A"/>
<path d="M337.003 539.503V548.66H336.993C332.492 547.892 326.923 546.451 320.846 544.315C317.092 542.998 313.576 541.598 310.424 540.208L312.114 530.771C315.848 531.684 319.996 532.918 324.31 534.432C328.976 536.07 333.187 537.761 336.713 539.389C336.827 539.42 336.91 539.461 337.003 539.503Z" fill="#73325A"/>
<path d="M321.313 491.201H316.314C313.047 491.201 310.393 487.986 310.393 484.72V483.662H321.313V491.201Z" fill="#A0505A"/>
<path fill-rule="evenodd" clip-rule="evenodd" d="M318.08 501.544C318.08 501.544 318.08 501.544 318.171 501.301C318.262 501.058 318.262 501.059 318.262 501.059L318.263 501.059L318.264 501.059L318.269 501.061C318.274 501.063 318.279 501.065 318.287 501.068C318.302 501.074 318.324 501.083 318.352 501.095C318.408 501.118 318.489 501.153 318.591 501.201C318.796 501.296 319.087 501.441 319.438 501.645C320.138 502.053 321.078 502.694 322.037 503.632C323.96 505.509 325.959 508.569 326.29 513.291L325.773 513.328C325.451 508.748 323.519 505.804 321.675 504.003C320.751 503.101 319.848 502.484 319.177 502.093C318.841 501.898 318.565 501.76 318.373 501.671C318.277 501.626 318.202 501.594 318.152 501.573C318.127 501.563 318.108 501.555 318.096 501.55C318.09 501.548 318.086 501.546 318.083 501.545L318.08 501.544L318.08 501.544ZM318.08 501.544C318.08 501.544 318.08 501.544 318.08 501.544L318.08 501.544Z" fill="#73325A"/>
<path fill-rule="evenodd" clip-rule="evenodd" d="M319.913 515.227H315.007V514.709H319.913V515.227Z" fill="#73325A"/>
<path fill-rule="evenodd" clip-rule="evenodd" d="M323.833 401.63C323.448 396.754 317.978 394.084 313.893 396.784L310.606 398.962L310.262 398.443L313.55 396.265C318.03 393.303 324.031 396.233 324.454 401.581L325.169 410.634C325.169 410.634 325.169 410.634 325.169 410.634C325.545 415.372 330.758 418.072 334.843 415.649L336.916 414.415L337.235 414.95L335.16 416.184L335.16 416.184C330.679 418.842 324.961 415.88 324.549 410.683L323.833 401.63Z" fill="#FFCF2D"/>
<path d="M262.657 365.072L304.896 389.587L326.165 437.34L301.764 420.904L275.247 389.836L262.657 365.072Z" fill="#9A3B82"/>
<path fill-rule="evenodd" clip-rule="evenodd" d="M305.659 388.685L262.616 363.692L262.928 363.154L306.145 388.248L327.912 437.099L327.344 437.352L305.659 388.685Z" fill="#FFCF2D"/>
<path d="M301.324 421.958C303.297 420.292 298.862 411.793 291.417 402.975C283.972 394.157 276.337 388.36 274.363 390.026C272.39 391.692 276.825 400.191 284.27 409.009C291.715 417.827 299.35 423.624 301.324 421.958Z" fill="white"/>
<path d="M300.124 422.467C302.058 420.834 297.708 412.5 290.407 403.853C283.106 395.206 275.62 389.52 273.686 391.153C271.751 392.786 276.102 401.119 283.402 409.766C290.703 418.414 298.19 424.1 300.124 422.467Z" fill="white"/>
<path fill-rule="evenodd" clip-rule="evenodd" d="M275.31 397.711C277.057 401.058 279.958 405.287 283.6 409.601C287.242 413.914 290.925 417.483 293.932 419.767C295.437 420.91 296.761 421.722 297.818 422.148C298.347 422.361 298.796 422.473 299.16 422.487C299.521 422.501 299.779 422.42 299.956 422.27C300.134 422.12 300.257 421.88 300.304 421.521C300.351 421.16 300.316 420.699 300.195 420.142C299.952 419.029 299.373 417.587 298.499 415.912C296.751 412.565 293.851 408.335 290.209 404.022C286.567 399.708 282.884 396.139 279.877 393.856C278.372 392.712 277.047 391.9 275.99 391.474C275.462 391.261 275.013 391.15 274.649 391.135C274.288 391.121 274.03 391.202 273.852 391.352C273.675 391.502 273.551 391.743 273.505 392.101C273.458 392.462 273.493 392.923 273.614 393.48C273.857 394.594 274.436 396.035 275.31 397.711ZM272.991 392.035C273.048 391.592 273.212 391.214 273.518 390.956C273.824 390.698 274.223 390.6 274.67 390.617C275.115 390.635 275.625 390.768 276.184 390.993C277.303 391.444 278.669 392.288 280.19 393.443C283.236 395.756 286.946 399.353 290.605 403.687C294.264 408.021 297.189 412.282 298.958 415.672C299.842 417.365 300.444 418.853 300.701 420.032C300.83 420.621 300.875 421.146 300.818 421.588C300.761 422.031 300.597 422.408 300.291 422.666C299.985 422.925 299.586 423.023 299.139 423.005C298.694 422.987 298.184 422.855 297.625 422.629C296.506 422.178 295.139 421.335 293.618 420.18C290.573 417.867 286.863 414.269 283.204 409.935C279.545 405.602 276.62 401.341 274.851 397.951C273.967 396.258 273.364 394.769 273.107 393.591C272.979 393.002 272.934 392.476 272.991 392.035Z" fill="#FFCF2D"/>
<path d="M305.27 418.602L301.246 421.993C301.993 421.361 301.827 419.764 300.925 417.534C299.442 413.863 295.968 408.502 291.342 403.006C286.707 397.52 281.999 393.196 278.628 391.122C276.585 389.857 275.03 389.421 274.283 390.054L278.307 386.663C280.277 384.994 288.262 390.448 295.708 399.273C303.154 408.098 307.251 416.943 305.27 418.602Z" fill="#FFCF2D"/>
<path d="M348.255 405.629C349.395 405.079 350.505 404.592 351.573 404.188C352.206 404.851 352.755 405.629 353.18 406.5C353.606 407.371 353.875 408.284 354 409.186C353.015 409.766 351.946 410.347 350.816 410.897C345.143 413.645 339.979 414.692 339.274 413.24C338.558 411.778 342.582 408.377 348.255 405.629Z" fill="#FFCF2D"/>
<path fill-rule="evenodd" clip-rule="evenodd" d="M338.237 413.011C337.716 413.011 337.294 413.433 337.294 413.955C337.294 414.476 337.716 414.898 338.237 414.898C338.758 414.898 339.181 414.476 339.181 413.955C339.181 413.433 338.758 413.011 338.237 413.011ZM336.671 413.955C336.671 413.09 337.372 412.389 338.237 412.389C339.102 412.389 339.803 413.09 339.803 413.955C339.803 414.819 339.102 415.52 338.237 415.52C337.372 415.52 336.671 414.819 336.671 413.955Z" fill="#9A3B82"/>
<path d="M264.182 540.095V584.001H214.166L220.575 536.32C220.575 538.249 230.333 540.655 242.373 541.692C254.413 542.739 264.182 542.024 264.182 540.095Z" fill="#66B0F0"/>
<path d="M263.954 538.965C263.954 540.894 254.279 541.609 242.353 540.562C230.427 539.515 220.751 537.109 220.751 535.19C220.751 533.262 230.427 532.546 242.353 533.594C254.289 534.631 263.954 537.036 263.954 538.965Z" fill="#3FB1B5"/>
<path fill-rule="evenodd" clip-rule="evenodd" d="M273.739 443.846L270.722 441.893L271.06 441.371L274.1 443.338L274.11 443.346C274.992 444.029 275.295 445.259 275.198 446.768C275.1 448.291 274.591 450.184 273.739 452.315C272.033 456.579 268.92 461.862 264.811 467.156C260.702 472.456 256.36 476.785 252.655 479.499C250.804 480.854 249.097 481.818 247.646 482.292C246.208 482.762 244.941 482.775 244.059 482.093L244.047 482.083L242.543 480.662L242.97 480.21L244.452 481.609C245.085 482.091 246.087 482.147 247.453 481.7C248.815 481.255 250.462 480.333 252.287 478.997C255.934 476.326 260.236 472.042 264.32 466.775L264.32 466.775C268.403 461.513 271.482 456.281 273.161 452.084C274.002 449.983 274.485 448.159 274.577 446.729C274.669 445.293 274.365 444.338 273.739 443.846Z" fill="#66B0F0"/>
<path d="M228.84 490.827L263.218 459.365L275.237 422.77L238.547 456.109L228.84 490.827Z" fill="#66B0F0"/>
<path fill-rule="evenodd" clip-rule="evenodd" d="M276.806 422.932C276.969 422.985 277.058 423.161 277.005 423.324L264.773 460.578L227.297 494.874C227.17 494.99 226.973 494.981 226.857 494.855C226.741 494.728 226.75 494.531 226.877 494.415L264.233 460.229L276.414 423.13C276.467 422.967 276.643 422.878 276.806 422.932Z" fill="#FE5244"/>
<path fill-rule="evenodd" clip-rule="evenodd" d="M214.013 490.261L246.659 459.037L247.089 459.487L214.443 490.71L214.443 490.711C212.636 492.435 209.682 490.805 210.19 488.349L211.102 483.921L211.102 483.921C211.459 482.198 209.504 480.939 208.085 481.974L208.085 481.975L197.3 489.825L196.934 489.322L207.719 481.472C207.719 481.472 207.719 481.472 207.719 481.472M211.712 484.047C212.184 481.767 209.598 480.101 207.719 481.472L211.712 484.047ZM211.712 484.047L210.799 488.474L210.799 488.475C210.415 490.332 212.646 491.564 214.013 490.261L214.013 490.261" fill="#FE5244"/>
<path d="M188.333 500.751C187.369 501.56 186.404 502.307 185.471 502.96C184.693 502.473 183.978 501.861 183.345 501.114C182.723 500.368 182.235 499.559 181.893 498.708C182.702 497.9 183.594 497.08 184.558 496.261C189.38 492.206 194.13 489.915 195.177 491.159C196.215 492.403 193.155 496.697 188.333 500.751Z" fill="#FFCF2D"/>
<path fill-rule="evenodd" clip-rule="evenodd" d="M196.111 489.386C195.59 489.386 195.168 489.808 195.168 490.33C195.168 490.851 195.59 491.273 196.111 491.273C196.633 491.273 197.055 490.851 197.055 490.33C197.055 489.808 196.633 489.386 196.111 489.386ZM194.545 490.33C194.545 489.465 195.247 488.764 196.111 488.764C196.976 488.764 197.677 489.465 197.677 490.33C197.677 491.194 196.976 491.895 196.111 491.895C195.247 491.895 194.545 491.194 194.545 490.33Z" fill="#FE5244"/>
<path d="M248.419 507.046V540.955C246.501 540.872 244.458 540.748 242.353 540.561C234.585 539.887 227.782 538.622 223.977 537.295L224.547 533.541L226.455 520.941H223.987C220.471 520.941 217.63 518.1 217.63 514.585V502.099C217.63 499.631 218.522 497.257 220.15 495.4L228.27 486.119C228.799 485.518 229.794 485.891 229.794 486.69V499.31C229.794 500.824 229.255 502.286 228.27 503.437L227.544 504.287H236.359C237.634 504.287 238.381 502.867 237.665 501.809C236.577 500.222 235.145 497.962 233.787 495.348C231.08 490.174 235.778 487.281 235.778 487.281L246.532 501.228C247.756 502.918 248.419 504.961 248.419 507.046Z" fill="#FFCF2D"/>
<path fill-rule="evenodd" clip-rule="evenodd" d="M229.795 485.756C229.938 485.756 230.054 485.872 230.054 486.015V499.309C230.054 500.885 229.493 502.407 228.468 503.605L228.467 503.605M228.467 503.605L227.742 504.455C227.649 504.564 227.485 504.577 227.376 504.484C227.267 504.391 227.254 504.227 227.347 504.119L228.073 503.268L228.073 503.268C229.018 502.164 229.536 500.762 229.536 499.309V486.015C229.536 485.872 229.652 485.756 229.795 485.756" fill="white"/>
<path fill-rule="evenodd" clip-rule="evenodd" d="M227.716 504.083C227.823 504.178 227.832 504.342 227.737 504.449L221.909 510.993C221.814 511.1 221.65 511.109 221.543 511.014C221.436 510.919 221.426 510.755 221.522 510.648L227.35 504.104C227.445 503.997 227.609 503.988 227.716 504.083Z" fill="white"/>
<path fill-rule="evenodd" clip-rule="evenodd" d="M229.794 493.273C229.937 493.273 230.053 493.39 230.053 493.533C230.053 495.108 229.492 496.63 228.466 497.828C228.466 497.828 228.466 497.828 228.466 497.828L227.739 498.681L221.919 505.216C221.824 505.323 221.66 505.332 221.553 505.237C221.446 505.142 221.437 504.978 221.532 504.871L227.348 498.34L228.072 497.491C229.017 496.387 229.534 494.985 229.534 493.533C229.534 493.39 229.651 493.273 229.794 493.273Z" fill="white"/>
<path fill-rule="evenodd" clip-rule="evenodd" d="M229.795 487.508C229.938 487.508 230.054 487.624 230.054 487.767C230.054 489.343 229.493 490.865 228.467 492.063C228.467 492.063 228.467 492.063 228.467 492.063L227.74 492.915L221.92 499.45C221.825 499.557 221.661 499.566 221.554 499.471C221.447 499.376 221.438 499.212 221.533 499.105L227.349 492.574L228.073 491.726C229.018 490.622 229.535 489.219 229.535 487.767C229.535 487.624 229.652 487.508 229.795 487.508Z" fill="white"/>
<path fill-rule="evenodd" clip-rule="evenodd" d="M226.195 521.283C226.195 521.14 226.311 521.023 226.454 521.023H230.924C231.067 521.023 231.183 521.14 231.183 521.283C231.183 521.426 231.067 521.542 230.924 521.542H226.454C226.311 521.542 226.195 521.426 226.195 521.283Z" fill="white"/>
<path d="M248.42 534.255V540.954C246.501 540.871 244.458 540.747 242.353 540.56C234.585 539.886 227.782 538.621 223.977 537.294L224.547 533.54C228.446 532.969 234.969 532.938 242.363 533.581C244.458 533.778 246.491 533.996 248.42 534.255Z" fill="#FE5244"/>
<path d="M198.227 583.998H140.392V526.663C140.392 529.11 149.901 531.091 161.64 531.091C173.38 531.091 182.889 529.11 182.889 526.663V526.652L198.227 583.998Z" fill="#3FB1B5"/>
<path d="M182.734 525.523C182.734 527.981 173.328 529.961 161.713 529.961C150.098 529.961 140.692 527.981 140.692 525.533V525.523C140.723 523.086 150.119 521.105 161.713 521.105C173.307 521.105 182.713 523.086 182.734 525.523Z" fill="#66B0F0"/>
<path d="M182.733 525.566C182.661 527.993 173.275 529.963 161.713 529.963C159.483 529.963 157.347 529.89 155.335 529.756V508.425H144.363C142.963 508.425 141.833 507.295 141.833 505.895V504.184C141.833 503.416 142.175 502.732 142.714 502.265C142.175 501.798 141.833 501.114 141.833 500.347V498.636C141.833 497.962 142.102 497.339 142.538 496.894C142.102 496.437 141.833 495.825 141.833 495.151V493.44C141.833 492.746 142.113 492.113 142.569 491.646C142.113 491.19 141.833 490.558 141.833 489.863V486.762C141.833 485.362 142.963 484.232 144.363 484.232H158.373C158.84 483.962 159.597 483.008 158.311 482.448L155.304 481.743C152.918 480.551 151.404 478.57 151.404 475.895H161.982C163.755 475.895 165.342 477.014 165.944 478.684L182.474 524.83L182.733 525.566Z" fill="#E57281"/>
<path d="M182.785 525.587C182.754 525.555 182.733 525.535 182.733 525.535C182.733 527.982 173.327 529.963 161.712 529.963C159.483 529.963 157.346 529.89 155.334 529.755V521.325C157.346 521.19 159.493 521.117 161.712 521.117C172.186 521.117 180.877 522.735 182.474 524.84C182.515 524.892 182.629 525.172 182.785 525.587Z" fill="#9A3B82"/>
<path d="M158.613 455.402V463.812C158.613 468.385 154.91 472.087 150.337 472.087C145.764 472.087 142.062 468.385 142.062 463.812V455.402C142.062 457.456 145.764 459.115 150.337 459.115C154.91 459.115 158.613 457.456 158.613 455.402Z" fill="white"/>
<path d="M150.337 459.114C154.907 459.114 158.613 457.452 158.613 455.402C158.613 453.352 154.907 451.689 150.337 451.689C145.767 451.689 142.062 453.352 142.062 455.402C142.062 457.452 145.767 459.114 150.337 459.114Z" fill="#FFCF2D"/>
<path fill-rule="evenodd" clip-rule="evenodd" d="M141.75 440.719H158.924V463.802C158.924 466.987 157.191 469.763 154.62 471.247L154.465 470.978C154.465 470.984 154.465 470.99 154.465 470.996L154.609 471.248C153.35 471.969 151.887 472.388 150.337 472.388C148.81 472.388 147.377 471.991 146.13 471.289H146.126L146.081 471.263C146.075 471.26 146.07 471.257 146.064 471.254C146.062 471.252 146.06 471.251 146.057 471.249L146.054 471.247C143.484 469.763 141.75 466.987 141.75 463.802V440.719ZM154.38 470.667C156.727 469.279 158.302 466.726 158.302 463.802V441.341H142.373V463.802C142.373 466.734 143.955 469.292 146.312 470.677H146.313L146.357 470.702C146.364 470.706 146.37 470.709 146.376 470.713C146.378 470.714 146.381 470.716 146.383 470.717L146.385 470.718C147.552 471.387 148.899 471.766 150.337 471.766C151.774 471.766 153.131 471.377 154.3 470.708L154.371 470.667H154.38Z" fill="#FFCF2D"/>
<path d="M150.337 444.743C154.959 444.743 158.706 443.081 158.706 441.031C158.706 438.98 154.959 437.318 150.337 437.318C145.715 437.318 141.968 438.98 141.968 441.031C141.968 443.081 145.715 444.743 150.337 444.743Z" fill="white"/>
<path fill-rule="evenodd" clip-rule="evenodd" d="M142.814 439.764C142.422 440.175 142.228 440.602 142.228 441.03C142.228 441.458 142.422 441.886 142.814 442.296C143.206 442.708 143.787 443.091 144.525 443.418C145.999 444.072 148.054 444.483 150.337 444.483C152.621 444.483 154.675 444.072 156.15 443.418C156.887 443.091 157.468 442.708 157.861 442.296C158.252 441.886 158.447 441.458 158.447 441.03C158.447 440.602 158.252 440.175 157.861 439.764C157.468 439.352 156.887 438.969 156.15 438.642C154.675 437.988 152.621 437.577 150.337 437.577C148.054 437.577 145.999 437.988 144.525 438.642C143.787 438.969 143.206 439.352 142.814 439.764ZM144.314 438.168C145.869 437.479 147.999 437.059 150.337 437.059C152.676 437.059 154.805 437.479 156.36 438.168C157.137 438.513 157.782 438.93 158.236 439.406C158.691 439.884 158.965 440.433 158.965 441.03C158.965 441.627 158.691 442.177 158.236 442.654C157.782 443.13 157.137 443.548 156.36 443.892C154.805 444.582 152.676 445.002 150.337 445.002C147.999 445.002 145.869 444.582 144.314 443.892C143.537 443.548 142.892 443.13 142.438 442.654C141.983 442.177 141.709 441.627 141.709 441.03C141.709 440.433 141.983 439.884 142.438 439.406C142.892 438.93 143.537 438.513 144.314 438.168Z" fill="#FFCF2D"/>
<path d="M150.337 441.59C151.013 441.59 151.561 441.042 151.561 440.366C151.561 439.69 151.013 439.143 150.337 439.143C149.661 439.143 149.113 439.69 149.113 440.366C149.113 441.042 149.661 441.59 150.337 441.59Z" fill="#FFCF2D"/>
<path d="M147.641 466.581C148.236 466.581 148.719 466.098 148.719 465.502C148.719 464.907 148.236 464.424 147.641 464.424C147.045 464.424 146.562 464.907 146.562 465.502C146.562 466.098 147.045 466.581 147.641 466.581Z" fill="white"/>
<path fill-rule="evenodd" clip-rule="evenodd" d="M147.641 464.684C147.188 464.684 146.821 465.051 146.821 465.504C146.821 465.956 147.188 466.323 147.641 466.323C148.093 466.323 148.46 465.956 148.46 465.504C148.46 465.051 148.093 464.684 147.641 464.684ZM146.303 465.504C146.303 464.765 146.902 464.166 147.641 464.166C148.379 464.166 148.978 464.765 148.978 465.504C148.978 466.242 148.379 466.841 147.641 466.841C146.902 466.841 146.303 466.242 146.303 465.504Z" fill="#FFCF2D"/>
<path d="M154.112 456.295C154.605 456.295 155.004 455.896 155.004 455.404C155.004 454.911 154.605 454.512 154.112 454.512C153.62 454.512 153.22 454.911 153.22 455.404C153.22 455.896 153.62 456.295 154.112 456.295Z" fill="white"/>
<path d="M145.484 462.985C145.976 462.985 146.376 462.586 146.376 462.093C146.376 461.6 145.976 461.201 145.484 461.201C144.991 461.201 144.592 461.6 144.592 462.093C144.592 462.586 144.991 462.985 145.484 462.985Z" fill="#FFCF2D"/>
<path d="M158.291 514.229H142.383C142.092 514.229 142.009 513.846 142.258 513.711L147.817 511.606C148.688 511.274 149.269 510.434 149.269 509.501V476.359C149.269 474.16 148.128 472.097 146.23 470.987C147.443 471.682 148.843 472.076 150.337 472.076C151.84 472.076 153.24 471.671 154.454 470.977C152.546 472.076 151.405 474.15 151.405 476.348V509.49C151.405 510.424 151.986 511.264 152.857 511.595L158.415 513.7C158.664 513.846 158.581 514.229 158.291 514.229Z" fill="white"/>
<path fill-rule="evenodd" clip-rule="evenodd" d="M152.822 471.967C152.037 472.207 151.204 472.337 150.337 472.337C149.47 472.337 148.632 472.208 147.843 471.967C148.918 473.151 149.528 474.721 149.528 476.361V509.503C149.528 510.544 148.881 511.48 147.909 511.85L147.909 511.851L142.374 513.947C142.374 513.947 142.374 513.947 142.373 513.947C142.373 513.948 142.372 513.949 142.372 513.95C142.371 513.953 142.37 513.958 142.371 513.965C142.372 513.968 142.373 513.97 142.374 513.972C142.374 513.972 142.374 513.972 142.375 513.972C142.376 513.972 142.379 513.972 142.383 513.972H158.291C158.295 513.972 158.298 513.972 158.299 513.972C158.299 513.972 158.3 513.972 158.3 513.972C158.301 513.97 158.302 513.968 158.303 513.964C158.304 513.957 158.304 513.949 158.301 513.943C158.3 513.941 158.299 513.939 158.297 513.936C158.297 513.936 158.296 513.935 158.295 513.934L152.765 511.84L152.765 511.84C151.793 511.47 151.146 510.534 151.146 509.493V476.35C151.146 474.718 151.751 473.149 152.822 471.967ZM150.337 471.819C151.793 471.819 153.149 471.427 154.325 470.754L154.583 471.204C152.76 472.254 151.664 474.24 151.664 476.35V509.493C151.664 510.318 152.178 511.061 152.949 511.355L152.949 511.355M147.725 511.366C147.725 511.366 147.725 511.366 147.725 511.366L142.15 513.477L142.135 513.485C141.896 513.615 141.817 513.869 141.866 514.081C141.915 514.297 142.103 514.491 142.383 514.491H158.291C158.572 514.491 158.759 514.296 158.808 514.079C158.857 513.866 158.778 513.614 158.546 513.479L158.528 513.468L152.949 511.355M147.725 511.366C148.496 511.072 149.01 510.328 149.01 509.503V476.361C149.01 474.251 147.915 472.274 146.099 471.213L146.359 470.764C147.534 471.437 148.89 471.819 150.337 471.819" fill="#FFCF2D"/>
<path d="M144.447 428.574C145.225 428.574 145.857 427.943 145.857 427.164C145.857 426.385 145.225 425.754 144.447 425.754C143.668 425.754 143.036 426.385 143.036 427.164C143.036 427.943 143.668 428.574 144.447 428.574Z" fill="#FFCF2D"/>
<path d="M154.111 430.848C154.787 430.848 155.335 430.3 155.335 429.624C155.335 428.948 154.787 428.4 154.111 428.4C153.436 428.4 152.888 428.948 152.888 429.624C152.888 430.3 153.436 430.848 154.111 430.848Z" fill="white"/>
<path fill-rule="evenodd" clip-rule="evenodd" d="M154.112 428.659C153.579 428.659 153.147 429.091 153.147 429.624C153.147 430.156 153.579 430.588 154.112 430.588C154.645 430.588 155.076 430.156 155.076 429.624C155.076 429.091 154.645 428.659 154.112 428.659ZM152.629 429.624C152.629 428.805 153.293 428.141 154.112 428.141C154.931 428.141 155.595 428.805 155.595 429.624C155.595 430.442 154.931 431.106 154.112 431.106C153.293 431.106 152.629 430.442 152.629 429.624Z" fill="#FFCF2D"/>
<path d="M148.118 435.618C148.611 435.618 149.01 435.218 149.01 434.726C149.01 434.233 148.611 433.834 148.118 433.834C147.626 433.834 147.227 434.233 147.227 434.726C147.227 435.218 147.626 435.618 148.118 435.618Z" fill="white"/>
<path fill-rule="evenodd" clip-rule="evenodd" d="M148.117 434.093C147.768 434.093 147.485 434.376 147.485 434.725C147.485 435.075 147.768 435.358 148.117 435.358C148.467 435.358 148.75 435.075 148.75 434.725C148.75 434.376 148.467 434.093 148.117 434.093ZM146.966 434.725C146.966 434.09 147.482 433.574 148.117 433.574C148.753 433.574 149.269 434.09 149.269 434.725C149.269 435.361 148.753 435.876 148.117 435.876C147.482 435.876 146.966 435.361 146.966 434.725Z" fill="#FFCF2D"/>
<path d="M147.652 424.76C148.059 424.76 148.389 424.43 148.389 424.023C148.389 423.617 148.059 423.287 147.652 423.287C147.246 423.287 146.916 423.617 146.916 424.023C146.916 424.43 147.246 424.76 147.652 424.76Z" fill="#FFCF2D"/>
<path d="M160.997 487.561V508.435H144.363C142.963 508.435 141.833 507.305 141.833 505.905V504.194C141.833 503.426 142.175 502.742 142.714 502.275C142.175 501.809 141.833 501.124 141.833 500.357V498.646C141.833 497.972 142.102 497.35 142.538 496.904C142.102 496.448 141.833 495.836 141.833 495.162V493.451C141.833 492.756 142.113 492.123 142.569 491.657C142.113 491.2 141.833 490.568 141.833 489.873V487.571H160.997V487.561Z" fill="#E57281"/>
<path fill-rule="evenodd" clip-rule="evenodd" d="M142.123 499.951C142.266 499.951 142.382 500.067 142.382 500.21C142.382 501.654 143.552 502.824 144.995 502.824H158.456C159.899 502.824 161.069 501.654 161.069 500.21C161.069 500.067 161.185 499.951 161.328 499.951C161.472 499.951 161.588 500.067 161.588 500.21C161.588 501.94 160.186 503.342 158.456 503.342H144.995C143.265 503.342 141.863 501.94 141.863 500.21C141.863 500.067 141.979 499.951 142.123 499.951Z" fill="#9A3B82"/>
<path fill-rule="evenodd" clip-rule="evenodd" d="M142.123 494.777C142.266 494.777 142.382 494.893 142.382 495.037C142.382 496.48 143.552 497.65 144.995 497.65H158.456C159.899 497.65 161.069 496.48 161.069 495.037C161.069 494.893 161.185 494.777 161.328 494.777C161.472 494.777 161.588 494.893 161.588 495.037C161.588 496.766 160.186 498.168 158.456 498.168H144.995C143.265 498.168 141.863 496.766 141.863 495.037C141.863 494.893 141.979 494.777 142.123 494.777Z" fill="#9A3B82"/>
<path fill-rule="evenodd" clip-rule="evenodd" d="M142.123 489.604C142.266 489.604 142.382 489.72 142.382 489.863C142.382 491.306 143.552 492.476 144.995 492.476H158.456C159.899 492.476 161.069 491.306 161.069 489.863C161.069 489.72 161.185 489.604 161.328 489.604C161.472 489.604 161.588 489.72 161.588 489.863C161.588 491.593 160.186 492.994 158.456 492.994H144.995C143.265 492.994 141.863 491.593 141.863 489.863C141.863 489.72 141.979 489.604 142.123 489.604Z" fill="#9A3B82"/>
<path fill-rule="evenodd" clip-rule="evenodd" d="M161.328 485.725C161.472 485.725 161.588 485.841 161.588 485.984V505.386C161.588 507.116 160.186 508.518 158.456 508.518H144.86C144.717 508.518 144.601 508.402 144.601 508.258C144.601 508.115 144.717 507.999 144.86 507.999H158.456C159.899 507.999 161.069 506.829 161.069 505.386V485.984C161.069 485.841 161.185 485.725 161.328 485.725Z" fill="#9A3B82"/>
<path fill-rule="evenodd" clip-rule="evenodd" d="M158.268 484.501C157.416 484.501 156.723 485.194 156.723 486.046C156.723 487.03 155.922 487.819 154.95 487.819H147.234C146.635 487.819 146.146 487.33 146.146 486.73C146.146 486.131 146.635 485.642 147.234 485.642H148.614C148.757 485.642 148.873 485.758 148.873 485.901C148.873 486.044 148.757 486.16 148.614 486.16H147.234C146.921 486.16 146.664 486.417 146.664 486.73C146.664 487.044 146.921 487.301 147.234 487.301H154.95C155.638 487.301 156.205 486.742 156.205 486.046C156.205 484.907 157.13 483.982 158.268 483.982H159.523C160.662 483.982 161.587 484.907 161.587 486.046V489.406C161.587 489.549 161.471 489.665 161.328 489.665C161.185 489.665 161.068 489.549 161.068 489.406V486.046C161.068 485.194 160.376 484.501 159.523 484.501H158.268Z" fill="#9A3B82"/>
<path d="M242.778 379.029L208.255 414.432L168.454 370.557L211.895 339.986L242.778 379.029Z" fill="#3FB1B5"/>
<path fill-rule="evenodd" clip-rule="evenodd" d="M165.614 370.412L211.12 338.509L210.763 338L164.678 370.308L206.678 416.342L207.137 415.923L165.614 370.412Z" fill="#FFCF2D"/>
<path fill-rule="evenodd" clip-rule="evenodd" d="M218.764 383.471C218.157 379.368 214.342 376.52 210.23 377.128L207.627 377.511L207.536 376.896L210.139 376.512C210.139 376.512 210.139 376.512 210.139 376.512C214.593 375.855 218.722 378.939 219.38 383.38L219.38 383.38L221.651 398.852C221.651 398.852 221.651 398.852 221.651 398.852C222.388 403.861 227.765 406.729 232.336 404.538L232.336 404.538L243.194 399.343L243.462 399.904L232.605 405.099" fill="#FFCF2D"/>
<path d="M257.172 402.59C258.282 403.191 259.329 403.814 260.283 404.436C260.117 405.338 259.806 406.23 259.35 407.091C258.894 407.941 258.313 408.698 257.649 409.33C256.602 408.874 255.503 408.345 254.393 407.744C248.845 404.747 244.977 401.169 245.744 399.749C246.511 398.328 251.624 399.593 257.172 402.59Z" fill="#FFCF2D"/>
<path fill-rule="evenodd" clip-rule="evenodd" d="M244.563 398.39C244.041 398.39 243.619 398.812 243.619 399.333C243.619 399.855 244.041 400.277 244.563 400.277C245.084 400.277 245.506 399.855 245.506 399.333C245.506 398.812 245.084 398.39 244.563 398.39ZM242.997 399.333C242.997 398.469 243.698 397.768 244.563 397.768C245.427 397.768 246.128 398.469 246.128 399.333C246.128 400.198 245.427 400.899 244.563 400.899C243.698 400.899 242.997 400.198 242.997 399.333Z" fill="#66B0F0"/>
<path d="M121.175 545.156V584.002H76.2812V561.115C77.2561 563.666 88.6842 562.038 100.88 557.372C111.852 553.172 120.324 548.008 121.175 545.156Z" fill="#FE5244"/>
<path d="M121.175 544.026C120.314 546.878 111.852 552.042 100.87 556.242C88.6844 560.908 77.2563 562.536 76.2711 559.985C75.2859 557.434 85.1378 551.658 97.3333 546.992C109.519 542.325 120.2 540.614 121.175 543.165C121.278 543.425 121.278 543.715 121.175 544.026Z" fill="#66B0F0"/>
<path d="M111.665 518.267V551.181L109.187 552.435C106.677 553.659 103.867 554.872 100.88 556.013C95.3943 558.118 90.0535 559.601 85.7602 560.368L88.2283 550.673L92.2521 534.848C90.3439 534.848 88.5395 533.998 87.3261 532.525L70.8062 513.735C73.6373 511.153 77.8684 514.668 77.8684 514.668L76.2817 506.569C75.9084 504.651 76.4684 502.66 77.7854 501.219L82.8046 495.712C83.8002 494.623 85.5943 495.049 86.0091 496.459L89.5765 508.768C89.5765 508.768 98.4328 515.529 100.092 515.529C101.969 515.529 102.622 514.005 99.1172 508.996C96.4832 505.232 99.1172 502.484 99.1172 502.484L107.694 509.701C110.213 511.837 111.665 514.969 111.665 518.267Z" fill="white"/>
<path fill-rule="evenodd" clip-rule="evenodd" d="M82.9962 495.887C82.9961 495.887 82.9961 495.887 82.996 495.887L77.9768 501.393C76.7152 502.774 76.1786 504.682 76.5362 506.519C76.5362 506.52 76.5362 506.52 76.5362 506.52L78.2628 515.333L77.7028 514.868L77.7007 514.866C77.699 514.864 77.6963 514.862 77.6927 514.859C77.6854 514.853 77.6741 514.844 77.6591 514.832C77.629 514.809 77.584 514.773 77.5253 514.729C77.4078 514.641 77.236 514.517 77.0208 514.376C76.5895 514.093 75.9882 513.744 75.3039 513.474C73.9929 512.958 72.4459 512.756 71.1748 513.761L87.5236 532.357L87.5262 532.36C88.6903 533.773 90.4213 534.589 92.2521 534.589H92.5855L88.4796 550.736L86.1111 560.041C90.3167 559.257 95.4825 557.806 100.787 555.771L100.788 555.771C103.767 554.633 106.57 553.423 109.072 552.203C109.072 552.203 109.073 552.202 109.073 552.202L111.406 551.021V518.266C111.406 515.045 109.988 511.986 107.526 509.899C107.526 509.899 107.526 509.899 107.526 509.899L99.1497 502.85C99.0964 502.919 99.0328 503.007 98.9642 503.113C98.7691 503.413 98.5348 503.851 98.3788 504.399C98.0697 505.486 98.0597 507.032 99.3297 508.847C100.211 510.106 100.836 511.154 101.246 512.018C101.655 512.88 101.86 513.576 101.882 514.13C101.904 514.693 101.738 515.128 101.389 515.413C101.052 515.688 100.589 515.788 100.092 515.788C99.8216 515.788 99.4548 515.658 99.0553 515.474C98.6425 515.283 98.1517 515.014 97.6163 514.695C96.5447 514.056 95.2762 513.207 94.0637 512.361C92.8503 511.514 91.6893 510.667 90.832 510.032C90.4032 509.715 90.0502 509.45 89.8043 509.265C89.6813 509.173 89.5852 509.1 89.5197 509.05C89.4869 509.025 89.4618 509.006 89.4449 508.993L89.4193 508.974C89.4192 508.974 89.4192 508.974 89.5765 508.768L89.4192 508.974L89.3513 508.922L85.7604 496.532C85.7603 496.531 85.7602 496.531 85.7602 496.531C85.4014 495.313 83.854 494.949 82.9962 495.887ZM89.8017 508.613L86.2581 496.386L86.2578 496.385C85.7866 494.783 83.7465 494.298 82.6133 495.537L82.613 495.537L77.594 501.043C76.2216 502.546 75.6382 504.62 76.0272 506.619L77.4857 514.063C77.4293 514.025 77.3691 513.984 77.3052 513.942C76.8548 513.647 76.2213 513.278 75.4939 512.992C74.0491 512.423 72.1573 512.152 70.6314 513.543L70.4434 513.715L87.1287 532.693C88.3208 534.138 90.0603 535.006 91.9207 535.099L87.9771 550.608L85.4097 560.694L85.8058 560.623C90.1173 559.853 95.4738 558.365 100.973 556.255C100.973 556.255 100.973 556.255 100.973 556.255L100.88 556.013L100.973 556.255C100.973 556.255 100.973 556.255 100.973 556.255C103.966 555.112 106.783 553.895 109.3 552.668L109.302 552.667L109.304 552.666L111.925 551.34V518.266C111.925 514.892 110.439 511.689 107.861 509.503L99.0982 502.129L98.9301 502.304L99.1172 502.483C98.9301 502.304 98.93 502.304 98.9298 502.304L98.9288 502.305L98.9265 502.308C98.9247 502.31 98.9222 502.312 98.9192 502.316C98.9132 502.322 98.9048 502.331 98.8943 502.343C98.8732 502.367 98.8438 502.401 98.8078 502.446C98.7359 502.534 98.6379 502.664 98.5295 502.83C98.313 503.163 98.0533 503.648 97.8801 504.257C97.5307 505.486 97.5407 507.195 98.9048 509.144C99.7761 510.389 100.384 511.411 100.778 512.241C101.174 513.074 101.346 513.697 101.364 514.151C101.382 514.595 101.252 514.855 101.06 515.012C100.856 515.179 100.534 515.27 100.092 515.27C99.9477 515.27 99.6747 515.188 99.2724 515.003C98.8832 514.823 98.4099 514.564 97.8817 514.25C96.8261 513.621 95.5694 512.779 94.3605 511.936C93.1523 511.092 91.9955 510.249 91.1405 509.616C90.713 509.299 90.3612 509.036 90.1163 508.851C89.9938 508.759 89.8981 508.686 89.8331 508.637C89.8217 508.628 89.8112 508.62 89.8017 508.613Z" fill="#FFCF2D"/>
<path fill-rule="evenodd" clip-rule="evenodd" d="M79.8433 498.598C80.9368 497.397 82.8524 497.867 83.3017 499.415L86.7114 511.179L92.9213 516.147L92.5974 516.551L86.2591 511.481L82.8037 499.56C82.8037 499.56 82.8037 499.56 82.8037 499.56C82.4648 498.392 81.0412 498.052 80.2266 498.947L79.8433 498.598Z" fill="#FFCF2D"/>
<path fill-rule="evenodd" clip-rule="evenodd" d="M76.8462 502.061C77.8853 500.915 79.7717 501.357 80.2013 502.837L83.4248 513.969L88.8167 518.356L88.4894 518.759L82.9718 514.269L79.7034 502.982C79.3863 501.89 77.9957 501.565 77.2304 502.409L76.8462 502.061Z" fill="#FFCF2D"/>
<path fill-rule="evenodd" clip-rule="evenodd" d="M78.0241 514.48L83.9974 519.489L83.6642 519.886L77.6909 514.878L78.0241 514.48Z" fill="#FFCF2D"/>
<path fill-rule="evenodd" clip-rule="evenodd" d="M99.2307 535.108H92.2515V534.59H99.2307V535.108Z" fill="#FFCF2D"/>
<path d="M111.665 542.697V551.398C108.575 553.036 104.893 554.695 100.88 556.24C95.3837 558.345 90.043 559.828 85.7393 560.596L88.2281 550.889C90.9867 549.562 94.077 548.235 97.3437 546.99C102.622 544.979 107.621 543.506 111.665 542.697Z" fill="#FFCF2D"/>
<path fill-rule="evenodd" clip-rule="evenodd" d="M107.483 440.13L104.351 433.258L104.917 433L108.09 439.961L108.095 440.009C108.416 442.742 106.469 445.208 103.738 445.539L103.737 445.54C101.347 445.82 99.6428 447.988 99.9235 450.379C99.9235 450.379 99.9235 450.379 99.9235 450.379L100.38 454.216L99.7619 454.289L99.3056 450.452C98.9849 447.721 100.931 445.243 103.663 444.922C106.039 444.633 107.735 442.501 107.483 440.13Z" fill="#FFCF2D"/>
<path d="M141.117 410.906L157.731 384.982L100.59 384.525L81.8716 434.363L112.775 432.911L141.117 410.906Z" fill="#FE5244"/>
<path fill-rule="evenodd" clip-rule="evenodd" d="M98.4575 382.045L158.419 382.721L158.411 383.344L98.8852 382.672L79.1238 434.774L78.542 434.554L98.4575 382.045Z" fill="#FFCF2D"/>
<path d="M140.091 407.019C143.409 412.712 137.768 422.19 127.481 428.184C117.193 434.178 106.169 434.416 102.851 428.723C102.395 427.945 102.115 427.105 101.98 426.203C101.15 420.51 106.574 412.733 115.461 407.558C124.349 402.384 133.786 401.492 138.328 405.018C139.044 405.578 139.635 406.241 140.091 407.019Z" fill="#66B0F0"/>
<path fill-rule="evenodd" clip-rule="evenodd" d="M128.557 403.333C124.568 403.757 120.029 405.257 115.618 407.826C111.207 410.394 107.664 413.603 105.329 416.866C102.99 420.135 101.889 423.421 102.287 426.156C102.417 427.023 102.685 427.824 103.119 428.564L103.119 428.565C104.696 431.269 108.138 432.62 112.545 432.524C116.94 432.428 122.217 430.889 127.324 427.914C132.431 424.938 136.371 421.105 138.62 417.328C140.876 413.541 141.398 409.879 139.822 407.175C139.387 406.433 138.822 405.798 138.136 405.261C135.954 403.568 132.553 402.908 128.557 403.333ZM128.491 402.714C132.57 402.281 136.158 402.938 138.518 404.77L138.519 404.771C139.264 405.354 139.882 406.047 140.359 406.86L140.359 406.861C142.102 409.85 141.462 413.773 139.155 417.646C136.842 421.53 132.817 425.433 127.637 428.451C122.456 431.47 117.078 433.047 112.559 433.146C108.053 433.244 104.324 431.867 102.582 428.879C102.104 428.063 101.812 427.185 101.672 426.248L101.672 426.247C101.241 423.289 102.436 419.84 104.823 416.504C107.215 413.161 110.828 409.894 115.304 407.288C119.781 404.682 124.404 403.149 128.491 402.714Z" fill="white"/>
<path fill-rule="evenodd" clip-rule="evenodd" d="M127.757 398.646C123.351 398.744 118.065 400.286 112.957 403.26C107.844 406.239 103.897 410.078 101.642 413.863C99.3821 417.658 98.8505 421.342 100.441 424.07L100.441 424.07L101.729 426.281C101.727 426.267 101.725 426.252 101.723 426.237L101.98 426.202L101.723 426.239C101.3 423.3 102.488 419.865 104.869 416.534C107.255 413.198 110.86 409.936 115.331 407.333C119.802 404.73 124.417 403.2 128.496 402.766C132.568 402.333 136.141 402.991 138.487 404.811L138.488 404.812C138.499 404.821 138.51 404.83 138.521 404.838L137.233 402.627C135.643 399.899 132.174 398.549 127.757 398.646ZM140.314 406.886L137.681 402.366L137.681 402.366C135.952 399.4 132.245 398.029 127.746 398.128C123.236 398.228 117.866 399.802 112.697 402.812L112.696 402.812C107.522 405.826 103.505 409.723 101.197 413.598C98.8942 417.464 98.2643 421.366 99.9926 424.331C99.9927 424.331 99.9927 424.331 99.9927 424.331L102.605 428.815C102.612 428.828 102.62 428.84 102.627 428.853L103.075 428.591L103.074 428.591C103.067 428.579 103.06 428.567 103.054 428.555C102.627 427.817 102.354 427.021 102.236 426.166L102.236 426.166L102.236 426.165C101.84 423.411 102.949 420.111 105.291 416.836C107.629 413.566 111.175 410.352 115.592 407.781C120.008 405.209 124.554 403.706 128.551 403.282C132.555 402.856 135.972 403.516 138.168 405.221C138.859 405.762 139.428 406.401 139.867 407.149L140.315 406.887L140.314 406.886Z" fill="white"/>
<path d="M99.1792 468.232C98.7747 469.425 98.3392 470.565 97.8829 471.613C96.9599 471.602 96.0266 471.447 95.114 471.136C94.191 470.825 93.3614 470.389 92.6147 469.84C92.8844 468.73 93.2162 467.558 93.6207 466.366C95.6325 460.393 98.4947 455.975 100.03 456.483C101.564 457.002 101.181 462.259 99.1792 468.232Z" fill="#FFCF2D"/>
<path fill-rule="evenodd" clip-rule="evenodd" d="M100.237 454.304C99.7156 454.304 99.2931 454.726 99.2931 455.248C99.2931 455.769 99.7156 456.191 100.237 456.191C100.758 456.191 101.181 455.769 101.181 455.248C101.181 454.726 100.758 454.304 100.237 454.304ZM98.6709 455.248C98.6709 454.383 99.372 453.682 100.237 453.682C101.102 453.682 101.803 454.383 101.803 455.248C101.803 456.112 101.102 456.813 100.237 456.813C99.372 456.813 98.6709 456.112 98.6709 455.248Z" fill="#66B0F0"/>
<path d="M46.695 541.554V583.997H0.0698242V521.529C0.982416 524.588 10.7409 530.966 22.8535 536.296C35.7439 541.989 46.4253 544.333 46.695 541.554Z" fill="#66B0F0"/>
<path d="M46.6951 540.424C46.4151 543.204 35.744 540.85 22.8537 535.167C10.7411 529.827 0.982595 523.449 0.0700031 520.4C0.00778097 520.203 -0.0129635 520.017 0.00777718 519.851C0.277406 517.072 10.9589 519.426 23.8492 525.108C36.7396 530.791 46.9751 537.645 46.6951 540.424Z" fill="#9A3B82"/>
<path d="M19.1014 479.544C20.211 477.262 22.5236 475.811 25.0644 475.811H32.3962L32.7799 505.282L37.8925 532.368L39.5206 540.975C35.2066 540.021 29.3162 538.019 22.8658 535.178C19.2155 533.571 14.6421 531.186 11.5933 529.506V493.647C11.5933 493.159 11.6866 492.672 11.8525 492.216L19.1014 479.544Z" fill="#A0505A"/>
<path d="M39.5079 540.975C35.1939 540.021 29.3035 538.019 22.8531 535.178C19.2028 533.571 14.6295 531.186 11.5806 529.506V520.494C14.9095 521.562 19.8354 523.346 23.8487 525.109C29.262 527.494 33.9909 529.951 37.8902 532.368L39.5079 540.975Z" fill="#73325A"/>
<path d="M66.8134 442.68L27.8105 514.439C26.369 517.094 22.3972 517.726 18.9439 515.849C15.4905 513.972 13.8624 510.302 15.3039 507.636L54.3068 435.877L66.8134 442.68Z" fill="white"/>
<path fill-rule="evenodd" clip-rule="evenodd" d="M54.2028 435.523L67.1649 442.574L28.0383 514.561C27.2711 515.974 25.8386 516.833 24.1723 517.098C22.5064 517.363 20.5926 517.039 18.82 516.075C15.2997 514.162 13.5384 510.354 15.0757 507.511L15.076 507.511L54.2028 435.523ZM54.4107 436.227L15.5318 507.758C14.1863 510.246 15.6813 513.779 19.0676 515.62C20.7483 516.533 22.5471 516.831 24.0908 516.586C25.6342 516.34 26.9083 515.555 27.5826 514.314L66.4618 442.782L54.4107 436.227Z" fill="#FFCF2D"/>
<path d="M66.8063 442.696C68.2503 440.039 66.6225 436.365 63.1705 434.489C59.7185 432.612 55.7495 433.245 54.3055 435.902C52.8615 438.559 54.4893 442.234 57.9413 444.11C61.3934 445.986 65.3623 445.353 66.8063 442.696Z" fill="#66B0F0"/>
<path fill-rule="evenodd" clip-rule="evenodd" d="M54.5328 436.026C53.1854 438.505 54.6794 442.042 58.0647 443.881C61.4499 445.721 65.2306 445.051 66.5781 442.572C67.9255 440.092 66.4315 436.556 63.0462 434.716C59.661 432.876 55.8802 433.546 54.5328 436.026ZM57.8171 444.337C54.2983 442.425 52.5367 438.613 54.0772 435.778C55.6178 432.944 59.775 432.348 63.2938 434.26C66.8126 436.173 68.5742 439.985 67.0336 442.819C65.4931 445.654 61.3359 446.249 57.8171 444.337Z" fill="#FFCF2D"/>
<path d="M41.333 470.148L59.7611 455.102L59.4708 460.452L65.3715 461.925L51.9315 470.221C55.5404 469.599 59.8856 469.091 63.4633 469.371C67.7256 469.702 66.2945 474.69 64.6974 478.952C68.4307 478.589 80.9478 471.009 85.6663 472.44C88.5492 473.311 87.5122 479.191 86.6826 482.437C87.8855 482.499 93.9729 482.426 93.9729 482.426L90.7581 485.361L92.5211 488.296C85.6767 488.596 85.5937 487.518 86.4544 482.665C86.5996 477.386 80.7507 482.457 68.2959 485.433C62.1256 486.906 62.9241 482.893 64.4485 478.714C63.8367 476.795 59.2634 474.711 44.5686 478.548L41.333 470.148Z" fill="#FE5244"/>
<path d="M41.6026 479.314C44.6095 479.314 47.0471 476.877 47.0471 473.87C47.0471 470.863 44.6095 468.426 41.6026 468.426C38.5958 468.426 36.1582 470.863 36.1582 473.87C36.1582 476.877 38.5958 479.314 41.6026 479.314Z" fill="white"/>
<path fill-rule="evenodd" clip-rule="evenodd" d="M41.6031 468.685C38.7394 468.685 36.4179 471.006 36.4179 473.869C36.4179 476.733 38.7394 479.054 41.6031 479.054C44.4668 479.054 46.7883 476.733 46.7883 473.869C46.7883 471.006 44.4668 468.685 41.6031 468.685ZM35.8994 473.869C35.8994 470.72 38.453 468.166 41.6031 468.166C44.7532 468.166 47.3068 470.72 47.3068 473.869C47.3068 477.019 44.7532 479.573 41.6031 479.573C38.453 479.573 35.8994 477.019 35.8994 473.869Z" fill="#FE5244"/>
<path d="M39.7259 475.811V476.153C39.7259 479.637 36.9052 482.468 33.4104 482.468H26.7837V475.811H39.7259Z" fill="#A0505A"/>
<path d="M47.7944 488.596L46.0418 492.702L43.9988 497.504L42.8892 500.107L41.1988 504.078C41.1573 504.182 41.0951 504.296 41.0433 504.389C41.0433 504.4 41.0329 504.4 41.0329 504.41C40.4936 505.343 39.4462 505.924 38.2951 505.924H24.8655C23.2373 505.924 22.1277 504.379 22.7292 502.958L23.704 500.667L25.8507 495.627L27.6966 491.282L29.3247 487.466C29.8018 486.346 30.9529 485.609 32.2388 485.609H45.6684C47.2862 485.63 48.3958 487.175 47.7944 488.596Z" fill="#A0505A"/>
<path fill-rule="evenodd" clip-rule="evenodd" d="M30.4973 490.565C29.7008 490.565 28.9616 490.907 28.45 491.475C28.3542 491.581 28.1903 491.59 28.0839 491.494C27.9774 491.399 27.9688 491.235 28.0646 491.128C28.673 490.452 29.5516 490.047 30.4973 490.047H43.3254C44.8301 490.047 45.9227 491.344 45.7713 492.73C45.7558 492.872 45.6278 492.975 45.4854 492.959C45.3431 492.944 45.2403 492.816 45.2559 492.673C45.3742 491.591 44.5171 490.565 43.3254 490.565H30.4973Z" fill="#73325A"/>
<path fill-rule="evenodd" clip-rule="evenodd" d="M28.6406 495.034C27.8899 495.034 27.1988 495.328 26.698 495.829C26.5967 495.931 26.4326 495.931 26.3313 495.829C26.2301 495.728 26.2301 495.564 26.3313 495.463C26.9297 494.864 27.7527 494.516 28.6406 494.516H41.4687C43.1106 494.516 44.2537 496.046 43.8341 497.561C43.7959 497.699 43.653 497.78 43.5151 497.742C43.3771 497.703 43.2962 497.561 43.3344 497.423C43.6614 496.242 42.772 495.034 41.4687 495.034H28.6406Z" fill="#73325A"/>
<path fill-rule="evenodd" clip-rule="evenodd" d="M26.577 500.116C25.8554 500.116 25.1826 500.391 24.6808 500.865C24.5767 500.963 24.4126 500.958 24.3143 500.854C24.2161 500.75 24.2209 500.586 24.325 500.488C24.9225 499.924 25.7223 499.598 26.577 499.598H39.4051C41.0934 499.598 42.2718 501.243 41.7238 502.805C41.6764 502.94 41.5285 503.011 41.3934 502.964C41.2583 502.916 41.1872 502.768 41.2345 502.633C41.6614 501.416 40.7449 500.116 39.4051 500.116H26.577Z" fill="#73325A"/>
<path d="M70.8886 367.985C71.7494 367.062 72.6101 366.201 73.4605 365.434C74.2901 365.817 75.0782 366.346 75.7938 367.01C76.499 367.673 77.0901 368.42 77.536 369.219C76.8308 370.121 76.0427 371.044 75.1819 371.967C70.8886 376.581 66.4605 379.433 65.2679 378.334C64.0857 377.235 66.5953 372.599 70.8886 367.985Z" fill="#FFCF2D"/>
<path d="M40.753 404.527L39.3841 405.377C34.4167 408.457 24.7412 401.831 17.7826 390.58C10.8138 379.328 9.19599 367.724 14.153 364.645L15.5634 363.773L23.953 388.454L40.753 404.527Z" fill="#66B0F0"/>
<path d="M54.6487 417.832L40.7524 404.527L23.9421 388.443L15.5525 363.774L8.05469 341.717L42.9717 369.85L54.6487 417.832Z" fill="#66B0F0"/>
<path fill-rule="evenodd" clip-rule="evenodd" d="M7.41553 340.803L43.2494 369.675L55.2032 418.794L40.5377 404.753L23.6724 388.616L15.2583 363.874L7.41553 340.803ZM8.69468 342.632L15.8474 363.674L24.2125 388.272L40.9679 404.303L54.095 416.871L42.6947 370.027L8.69468 342.632Z" fill="white"/>
<path fill-rule="evenodd" clip-rule="evenodd" d="M8.98461 340.529L44.4217 368.439L56.0411 416.442L55.4363 416.588L43.8676 368.795L8.59961 341.018L8.98461 340.529Z" fill="#9A3B82"/>
<path fill-rule="evenodd" clip-rule="evenodd" d="M49.1367 380.273C48.0866 377.007 44.6913 375.097 41.3452 375.908L41.3449 375.908C37.8203 376.76 35.6516 380.314 36.5032 383.839L35.8984 383.985C34.9662 380.127 37.3397 376.236 41.1987 375.304C44.8624 374.415 48.5805 376.507 49.7296 380.084L49.7301 380.085L52.6446 389.492L52.6447 389.493C54.1562 394.388 61.2091 394.01 62.1947 388.975L63.8746 380.337L64.4854 380.456L62.8054 389.094L62.8053 389.095C61.6961 394.761 53.7537 395.192 52.0502 389.677M52.0502 389.676L49.1372 380.274C49.137 380.274 49.1368 380.273 49.1367 380.273" fill="#FFCF2D"/>
<path fill-rule="evenodd" clip-rule="evenodd" d="M64.5732 378.439C64.0521 378.439 63.6295 378.861 63.6295 379.382C63.6295 379.903 64.0521 380.326 64.5732 380.326C65.0944 380.326 65.5169 379.903 65.5169 379.382C65.5169 378.861 65.0944 378.439 64.5732 378.439ZM63.0073 379.382C63.0073 378.517 63.7084 377.816 64.5732 377.816C65.4381 377.816 66.1392 378.517 66.1392 379.382C66.1392 380.247 65.4381 380.948 64.5732 380.948C63.7084 380.948 63.0073 380.247 63.0073 379.382Z" fill="#66B0F0"/>
</g>
</g>
<defs>
<clipPath id="clip0_2492_17132">
<rect width="1920" height="564" fill="white"/>
</clipPath>
<clipPath id="clip1_2492_17132">
<rect width="354" height="246" fill="white" transform="translate(1566 318)"/>
</clipPath>
<clipPath id="clip2_2492_17132">
<rect width="354" height="246" fill="white" transform="translate(0 338)"/>
</clipPath>
</defs>
</svg>
